<?xml version="1.0" encoding="utf-8"?>
<!-- Generator: Adobe Illustrator 17.0.0, SVG Export Plug-In . SVG Version: 6.00 Build 0)  -->
<!DOCTYPE svg PUBLIC "-//W3C//DTD SVG 1.1//EN" "http://www.w3.org/Graphics/SVG/1.1/DTD/svg11.dtd">
<svg version="1.1" xmlns="http://www.w3.org/2000/svg" xmlns:xlink="http://www.w3.org/1999/xlink" x="0px" y="0px" width="1024px"
	 height="768px" viewBox="0 0 1024 768" enable-background="new 0 0 1024 768" xml:space="preserve">
<g id="bcs">
	<polygon fill="#CCCCCC" points="102.055,242.905 103.684,240.077 105.89,238.395 125.067,239.819 151.979,241.241 153.754,242.281 
		152.398,248.189 157.634,255.801 160.013,256.274 164.773,259.606 165.727,266.74 168.266,270.545 167,271.021 167,272.257 
		175.874,276.256 173.178,279.586 178.489,284.818 179.006,283.867 188.061,290.526 187.596,296.234 191.406,298.614 189.8,301.943 
		192,304.796 192,308.312 194.018,313.361 192.714,318.592 193.729,322.875 194.711,323.352 194.252,325.252 196.636,327.631 
		198.067,332.862 202.827,334.767 202.353,338.572 204.731,342.854 205.683,347.608 207.11,350.941 210.438,353.796 
		212.344,357.598 212.817,361.883 209.964,369.494 211.391,377.103 213.295,380.433 216.624,382.807 219.821,383.29 221.38,386.617 
		224.711,384.236 223.76,379.004 226.615,378.531 228.993,382.336 233.274,385.666 234.7,389.948 235.651,390.9 238.982,389.948 
		239.932,391.375 238.114,394.705 242,399.467 242,404.049 249.02,407.55 251.137,413.255 250.292,419.918 247.491,423.726 
		243.235,425.623 240.868,428.576 235.651,432 231.041,432 228.515,427.996 226.138,415.157 221.857,406.594 211.391,399.934 
		199.022,385.666 186.181,377.103 181.422,371.871 179.997,367.59 179.045,367.113 178.094,368.537 175.237,367.343 176.19,369 
		174.47,369 174.286,364.616 169.82,356.69 169.592,360.342 166.675,359.961 164.912,355.688 166,352.842 166,350.585 
		165.297,350.538 165.629,345.233 168.054,341.902 168.835,328.851 168.017,326.913 167.618,323.825 163.818,313.835 
		162.393,311.456 160.966,311.933 160.489,305.749 158.115,304.322 157.034,305.275 155,303.846 155,302.718 150.879,302.418 
		147.599,299.088 148.101,298.138 138.396,290.272 137.653,289.097 133.851,287.199 133.376,286.25 129.143,283.401 
		127.669,282.317 124.338,286 122.251,286 118.631,282.416 114.825,276 109.818,276 104.835,269.128 102.932,268.172 
		101.505,269.124 97.225,267.218 96.749,265.317 95.321,264.839 94.369,258.183 88.187,253.898 85.594,250.567 83,249.138 
		83,248.012 82.29,248.19 81.195,246.286 79.457,245.811 79.066,241.314 80.575,243 85.574,243 92.469,246 95.52,246 
		101.505,242.718 	"/>
</g>
<g id="bcn">
	<polygon fill="#CCCCCC" points="105.179,238.254 151.598,241.168 152.202,234.833 149.451,231.999 150.453,226.297 
		145.719,225.827 142.88,223.927 140.983,211.561 139.417,211.086 136.013,212.308 135.928,207.756 134.339,205.856 132.67,206.328 
		132.825,208.231 130.962,207.756 130.026,205.856 130.512,200.143 128.142,197.291 127.667,194.437 125.945,190.989 
		115.776,181.115 111.972,174.933 110.068,173.982 108.64,174.933 106.263,173.029 105.787,168.748 101.98,165.42 98.65,157.808 
		101.031,147.817 99.127,141.635 99.602,131.646 95.797,128.789 96.749,126.412 94.845,122.607 97.225,109.288 99.602,105.481 
		98.457,100.944 97.028,100.467 93.416,95.015 92.141,90.99 93.776,90.227 94.867,88.155 95.085,85.975 93.342,82.593 
		97.155,74.454 101.518,73.583 111.551,59.362 97.991,52.081 100,46.255 100,41 26.025,41.259 25.894,44.591 27.196,48.398 
		27.722,53.155 26.794,54.581 26.722,55.524 27.68,56.949 27.292,59.338 29.197,58.862 31.102,62.193 30.627,63.145 29.675,62.669 
		31.579,72.659 33.004,75.512 35.859,77.892 36.812,85.978 38.715,86.93 39.667,89.782 43.947,93.114 42.519,96.443 39.146,95.966 
		41,99.298 41,101.923 40.244,103.103 42.332,106.433 45.759,108.335 50.085,116.899 50.584,121.18 49.166,125.46 51.55,125.938 
		57.263,132.121 56.289,145.198 57.265,144.964 58.693,145.439 59.388,144.903 59.645,145.439 58.693,146.867 62.025,148.294 
		63.449,153.526 62.025,163.516 64.4,164.465 64.877,170.652 68.683,173.505 69.635,175.883 71.536,176.359 78.67,182.068 
		79.623,184.445 87.234,186.825 93.895,196.338 95.797,197.291 98.176,203.95 101.505,204.902 106.205,213.465 109,214.891 
		109,217.551 111.884,220.6 107.882,229.164 109.926,232.017 108.465,237.725 107,238.199 107,236.822 	"/>
</g>
<g id="sonora">
	<polygon fill="#CCCCCC" points="111.674,59.594 101.58,73.698 97.186,74.511 93.356,82.622 94.948,85.678 94.871,88.162 
		93.777,90.23 92.142,90.992 92.944,92.639 102.456,101.201 106.263,101.675 116.727,111.19 122.911,112.618 125.29,110.237 
		124.338,110.355 125.29,110 127.225,110 134.804,114.632 135.278,120 134.063,120 139.085,122.147 145.744,124.277 
		147.173,123.679 145.27,122.669 145.92,122.162 148,125.938 148,124.302 150.129,124.509 152,126.887 152,129.275 150.777,133.07 
		150.403,134.975 149.025,139.733 149.159,144.013 155,154.001 155,159.737 156.433,159.711 158.464,162.562 158.052,173.029 
		160.457,173.505 162.856,180.641 168.57,188.728 167.148,193.01 167.358,194.914 169,196.338 169,195.171 171.982,194.914 
		173.611,196.815 172.118,200.62 173,202.522 173,208.226 175.134,208.706 179.045,213.939 182,215.366 182,217.551 
		181.157,215.843 180.1,216.317 185.52,222.977 187.513,227.736 195.647,231.541 195.195,232.969 198.427,238.407 205.201,247.711 
		209.01,247.24 212.342,251.997 213.295,250.095 212.344,249.62 213.769,246.763 214.724,249.138 215.329,249.325 216.149,249.138 
		220.907,251.519 220.763,250.567 223,251.519 223,252.364 220,252.947 220,256.094 222.416,256.275 221.185,257.701 
		221.759,258.183 219.903,259.132 221.356,263.611 221.857,270 224.203,270 225.186,273 223.582,273 226.138,273.928 
		228.993,277.916 237.079,280 240.366,280 242.788,286.236 240.409,284.337 244.689,293.377 248.972,296.232 250.399,295.283 
		253.217,295.174 252.201,293.855 254,292.906 254,294.637 255.928,295.426 256.583,297 255.286,297 261.342,302.184 
		262.289,305.153 261.815,309.257 265.144,307.743 280.342,299.406 286.88,293.275 289.935,285.85 289.062,284.102 286.445,284.534 
		283.83,276.684 286.008,273.627 284.701,269.267 285.135,265.34 281.647,263.159 281.214,259.671 276.851,254.874 273.36,247.459 
		270.746,240.915 273.36,237.863 278.595,237.427 285.573,240.044 288.19,237.427 286.445,227.395 288.625,220.416 285.573,198.174 
		289.062,197.302 290.372,193.377 291.68,177.239 289.498,157.612 287.753,154.557 285.135,134.059 282.956,132.749 
		284.265,128.827 285.956,114.213 210.998,114.212 	"/>
</g>
<g id="chuchuahua">
	<polygon fill="#CCCCCC" points="285.589,114.213 299,114.212 299,99.436 336.743,99.216 347.002,104.55 353.466,104.884 
		354.735,105.549 356,109.216 356,112.491 360.349,115.877 371.293,123.204 385.6,143.858 391.417,145.191 400.825,154.186 
		403.525,158.85 409.541,187.16 419.212,194.157 426.549,199.822 432.214,202.409 439.216,207 439.919,207 440.884,208.778 
		454.876,215.46 455.669,217.483 433.865,258.42 443.458,300.697 432.555,297.631 424.706,298.495 416.852,310.701 414.239,311.137 
		410.749,309.831 408.565,306.337 403.333,305.467 399.407,307.648 397.663,307.211 396.354,305.03 391.555,308.082 
		384.144,305.902 380.22,300.231 374.988,299.795 366.699,294.038 364.953,297 362.211,297 361.105,301.51 359,303.285 359,308.312 
		350.79,308.955 350.022,311.574 353.999,317.942 350.997,323 348.535,323 348.378,333.295 341.96,337.044 329,335.561 329,330.071 
		327.718,326.837 324.964,325.965 323.807,322.04 321.264,318.55 310.397,317.68 307.799,300.231 303.883,295.871 304.323,290.2 
		298.654,286.711 296.913,284.096 292.552,283.222 289.935,285.839 289.062,284.096 286.445,284.532 283.83,276.682 
		286.008,273.626 284.701,269.267 285.135,265.34 281.647,263.159 281.214,259.671 276.851,254.874 270.746,240.915 273.36,237.863 
		278.595,237.427 285.573,240.044 288.19,237.427 286.445,227.395 288.625,220.416 285.573,198.174 289.062,197.302 
		290.372,193.377 291.68,177.239 289.498,157.612 287.753,154.557 285.135,134.059 282.956,132.749 284.081,128.827 	"/>
</g>
<g id="coahuila">
	<polygon fill="#CCCCCC" points="463.535,205.835 468.198,190.504 471.867,187.831 475.863,187.162 482.193,183.833 492.519,182.5 
		497.519,180.499 503.18,182.499 512.175,184.5 515.846,189.16 516.177,191.825 520.172,195.49 528.171,199.487 530.5,202.485 
		532.164,205.816 535.831,210.479 539.498,218.474 541.162,225.137 544.159,230.8 549.157,237.129 551.824,242.127 557.621,249.121 
		561,259.697 561,261.689 555.604,261.268 550.274,264.177 546.878,274.065 540.527,277.551 535.896,282.787 535.327,287.731 
		537.665,288.022 539.995,285.984 542.025,287.731 544.935,288.022 543.773,294.417 541.741,299.362 542.605,300.524 
		539.701,303.14 536.69,299.817 523.126,311.574 528.361,319.71 532.435,320.587 531.906,326.69 534,327.857 534,330.693 
		533.629,333.091 535.062,335.706 539.127,340.94 542.464,342.393 543.702,343.847 542.281,345.304 546.956,347.92 547.253,349.664 
		553.073,349.952 555.984,351.987 555.112,354.604 550.755,356.058 544.935,353.441 539.948,354.297 535.632,356.931 
		534.473,362.748 538.541,365.071 535.827,367.981 537.671,372.343 537.612,376.082 536.483,379.613 534.877,377.731 
		532.935,378.157 530.943,379.323 525.358,375.249 524.289,372.053 522.252,370.308 517.604,370.016 514.697,372.343 
		510.043,371.178 510.915,368.856 509.463,367.399 507.138,368.561 505.102,367.111 502.776,361.876 488.818,356.642 
		477.479,359.259 470.497,372.634 468.17,371.467 467.3,369.725 460.904,368.561 456.54,363.622 455.962,360.132 454.797,358.385 
		452.766,358.096 448.405,351.699 448.985,348.79 451.892,347.338 449.565,343.56 450.441,340.068 453.927,335.999 454.218,330.475 
		453.343,328.436 452.766,322.622 455.669,316.806 454.797,313.316 443.458,300.668 433.865,258.361 455.669,217.365 
		457.207,214.145 	"/>
</g>
<g id="nuevo_leon">
	<polygon fill="#CCCCCC" points="535.289,379.417 535,376.074 535,372.343 534.879,367.981 537.912,365.071 534.158,362.748 
		535.475,356.931 540.792,353.734 543.677,353.53 550.008,355.731 555.102,354.604 555.981,351.987 553.074,349.952 
		547.261,349.664 546.971,347.92 542.312,345.304 543.764,343.847 542.587,342.393 539.373,340.94 535.554,335.706 533.787,333.091 
		534,330.693 534,327.857 531,326.962 531,323.784 531.428,320.587 527.976,319.71 526.722,317.095 523.029,311.574 536.747,299.65 
		539.676,303.14 542.594,300.524 541.735,299.362 543.771,294.417 544.935,288.022 542.025,287.731 539.998,285.984 
		537.668,288.022 535.334,287.731 535.91,282.787 540.557,277.551 546.935,274.065 550.387,264.177 555.26,261.268 560,261.689 
		560,259.202 564.497,260.031 570.445,263.028 573.254,276.018 578.656,291.676 583.357,298.338 586.041,304.001 589.38,307.332 
		602.376,310.996 607.044,314.995 609.818,315.634 609.778,343.847 614.72,344.137 612.102,347.92 597.779,359.549 594.949,357.514 
		590.877,359.836 589.134,361.584 590.296,363.325 590.586,365.071 589.426,366.817 590.586,369.434 585.934,368.856 
		582.448,371.178 580.697,371.467 578.375,375.539 576.344,374.962 571.975,378.451 572.559,381.358 575.47,380.485 
		576.924,386.008 574.887,390.371 575.47,393.857 580.991,398.516 581.283,402.293 579.246,404.328 577.795,407.234 568.195,406.07 
		564.708,414.794 566.738,420.023 565.87,421.189 561.804,420.607 559.765,421.771 561.512,424.971 560.638,426.428 
		553.661,425.967 553.373,429 550.574,429 548.955,426.477 548.134,421.579 548.718,416.882 547.551,414.241 548.134,408.121 
		543.773,400.261 543.191,387.175 539.447,382.816 	"/>
	<path fill="#CCCCCC" d="M501.903,310.673"/>
</g>
<g id="tamaulipas">
	<polygon fill="#CCCCCC" points="610.149,315.495 615.872,317.094 622.032,321 638.849,321 644.695,325.942 649.022,325 650.66,325 
		651.409,323.769 651.887,324.986 653.789,323.929 655.041,323.646 654.739,334.793 643.585,361.755 643.321,358.083 
		647.126,349.993 646.652,346.663 647.604,345.705 643.321,344.28 642.847,345.233 644.274,345.704 642.847,350.706 642.376,350 
		640.092,350 640.465,349 638.849,349 637.614,352.023 638.566,355.05 637.441,359.497 637.614,361.479 640.945,363.82 
		639.521,365.706 637.142,366.17 638.566,367.595 638.094,372.349 639.521,371.873 638.094,379.665 636.191,377 634.497,377 
		633.81,379 634.497,379 634.284,381.285 635.238,382.045 638.566,381.003 637.142,393.801 636.666,393.299 636.191,394.717 
		637.614,395.189 638.094,403.746 637.142,404.695 637.614,409.449 638.175,410.522 637.614,421.821 638.955,434.768 
		637.142,440.848 634.76,442.273 635.713,443.227 634.284,447.03 635.798,448.057 635.713,449.888 638.955,460.472 636.816,461.895 
		634.783,461.606 634.493,458.12 628.386,455.065 626.424,453.319 623.806,452.739 622.355,455.065 620.316,455.72 616.178,454.046 
		613.845,455.213 608.762,454.917 606.582,456.373 602.8,456.955 601.928,458.12 596.98,455.213 591.461,455.501 585.644,446.198 
		582.448,446.782 580.122,444.16 578.953,445.034 579.826,448.523 575.763,447.362 569.652,444.449 564.371,443.578 562,442.131 
		562,440.104 566.981,435.44 566.865,433.982 564.622,431.951 563.506,428.751 560.877,430.494 560,428.46 560,426.429 
		561.097,424.971 559.558,421.771 561.7,420.607 565.818,421.189 566.713,420.023 564.696,414.794 568.188,406.07 577.793,407.234 
		579.244,404.328 581.283,402.293 580.991,398.516 575.47,393.857 574.887,390.371 576.924,386.008 575.47,380.485 572.559,381.358 
		571.975,378.451 576.344,374.962 578.375,375.539 580.697,371.467 582.448,371.178 585.934,368.856 589.72,370.016 
		590.586,369.434 589.426,366.817 590.586,365.071 590.296,363.325 589.134,361.584 590.877,359.836 594.949,357.514 
		597.779,359.549 612.102,347.92 614.72,344.137 609.778,343.847 	"/>
</g>
<g id="slp">
	<polygon fill="#CCCCCC" points="560,426.429 560,428.46 560.579,430.494 563.245,428.751 564.525,431.951 566.889,433.982 
		566.637,435.44 562,440.104 562,442.131 564.059,443.578 569.4,444.449 575.638,447.362 579.763,448.523 578.922,445.034 
		580.106,444.16 582.44,446.782 585.639,446.198 591.458,455.501 596.98,455.213 601.928,458.12 602.8,456.955 606.582,456.915 
		608.762,456 612.117,456 614.217,457.734 618.792,461.273 621.117,462.312 621.848,463.409 617.7,465.128 617.991,468.499 
		616.827,471 613.982,471 614.217,474.619 616.537,476.834 615.956,478.817 611.309,481.987 613.631,487.207 615.668,490.06 
		616.614,494 615.227,494 612.905,494.07 611.817,496.264 612.905,498.453 612.247,499.225 610.069,497.859 606.36,499.215 
		605.923,501 604.657,501 603.606,498.99 601.349,497.893 600.977,496.281 597.634,496.794 594.432,493.27 591.248,482.336 
		589,483.635 589,485.485 588.48,486 587.252,486 586.304,489.625 584.336,490.594 581.722,492 579.791,492 576.266,486.958 
		574.307,486.932 574.084,489.318 572.776,491.384 571.247,489.363 568.195,488.678 564.054,486.701 563.401,485.823 560.13,484.29 
		559.039,482.107 553.152,481.454 549.446,482.322 548.571,486.032 547.045,487.56 544.646,488.213 542.684,486.468 
		540.721,486.686 538.977,484.943 536.14,483.85 531.997,478.839 525.893,479.492 522.841,478.572 521.315,477 516.382,477 
		515.207,474.956 517.171,471.989 518.479,470.832 519.568,461.86 518.479,458.135 518.042,455.51 520.22,453.977 520.877,452.882 
		519.349,450.272 517.171,448.742 514.333,448.523 511.496,451.578 508.226,453.398 506.703,455 503.949,455 501.034,449.826 
		496.085,444.521 490.851,441.295 488.818,435.459 489.69,430.503 487.364,425.847 488.818,424.147 489.981,421 490.894,421 
		493.468,421.699 497.253,420.863 498.998,421.463 503.649,413.913 506.554,412.467 508.592,408.98 515.207,406.068 
		520.802,401.126 526.038,392.697 529.817,386.008 534.768,383.099 536.483,379.613 539.999,382.815 543.191,387.175 
		543.773,400.26 548.134,408.119 547.551,414.236 548.718,416.872 548.134,421.481 548.964,426.67 550.574,429 553.65,429 
		553.245,426.121 	"/>
</g>
<g id="zacatecas">
	<polygon fill="#CCCCCC" points="515.229,475.12 517.181,472.072 518.485,470.872 519.571,461.879 518.48,458.147 518.043,455.517 
		520.22,453.982 520.877,452.888 519.349,450.282 517.171,448.764 514.333,448.561 511.496,451.656 508.226,453.721 507.042,455.04 
		503.949,455.024 501.034,450.15 496.085,444.609 490.851,441.345 488.818,435.499 489.69,430.553 487.364,425.93 488.818,424.65 
		489.981,422 490.894,422 493.468,422.199 497.253,421.036 498.998,421.548 503.649,413.956 506.554,412.489 508.592,408.99 
		515.207,406.074 520.802,401.129 526.038,392.698 529.817,386.008 534.768,383.099 536.483,379.613 534.877,377.731 
		532.935,378.157 530.943,379.323 525.358,375.249 524.289,372.053 522.252,370.308 517.604,370.016 514.697,372.343 
		510.043,371.178 510.915,368.856 509.463,367.399 507.138,368.561 505.102,367.111 502.776,361.876 488.818,356.642 
		477.479,359.259 482.132,368.27 483.295,380.643 481.548,384 473.488,384 470.213,384.904 458.579,383.271 456.54,381.882 
		450.148,383.359 448.692,386.863 445.784,387.746 445.753,390.951 437,396.477 437,399.074 437.063,401 435.566,401 
		434.444,403.059 435.895,404.715 435.608,407.858 438.513,410.746 437.063,411.897 433.865,411.094 433.573,413.632 
		427.175,417.123 426.302,418.864 427.469,420.608 426.302,429.042 423.685,432.237 423.925,444.119 420.128,461.936 
		427.175,459.57 430.956,459.862 432.703,456.955 432.409,452.302 429.795,450.557 429.503,446.782 430.373,442.999 438.513,444.16 
		437.934,447.362 435.317,449.106 435.608,453.467 434.444,456.373 434.704,461.606 437,455.791 437,451.294 439.002,448.235 
		443.409,451.428 441.255,459.57 441.629,462.479 441.383,464.512 442.856,466.553 445.485,465.098 448.688,466.553 
		448.765,463.065 450,461.895 450,458.133 449.438,456.084 450.086,454.046 452.588,451.428 458.781,456.373 457.659,458.408 
		456.234,458.991 456.823,460.15 460.028,459.28 462.647,461.028 462.07,463.35 458.869,465.68 459.824,468.004 457,470.043 
		457,471.188 456.186,472.946 454.041,471.379 449.038,474.691 445.085,480.218 445.438,486.609 442.848,488.648 440.542,487.484 
		439.09,488.361 438.805,493.884 436.768,499.119 440.839,498.827 442.298,501.151 444.621,501.734 446.946,502.608 
		448.985,502.316 451.311,504.347 454.218,503.478 457.126,504.347 458.869,505.227 461.197,503.478 460.033,499.406 
		460.904,497.084 467.3,498.827 469.045,496.504 471.372,496.621 471.956,495 474.731,495 475.445,492.698 473.991,490.962 
		475.735,490.246 475.445,486.393 471.372,484.908 469.045,483.147 469.27,481.391 466,477.893 466,473.674 469.127,471.787 
		470.977,468.004 473.498,466.553 475.346,461.895 476.268,460.15 479.487,459.57 482.699,457.538 485.615,456.373 486.78,454.134 
		489.981,458 492.76,458 493.184,460.536 494.88,461.074 496,462.479 496,466.836 501.192,469.172 507.069,472.075 511.899,475.564 
			"/>
</g>
<g id="durango">
	<polygon fill="#CCCCCC" points="418.782,456.268 414.431,456.268 411.188,453.319 410.6,450.557 409.223,446.816 406.022,445.361 
		399.696,449.432 395.052,447.105 396.645,444.744 401.298,442.131 400.138,439.216 399.555,436.314 391.409,432.237 
		384.144,431.951 383.707,428.46 379.783,428.894 376.73,426.715 376.73,424.095 374.109,421.047 373.238,414.065 369.314,411.449 
		368.006,405.783 366.699,404.035 367.131,400.111 368.446,397.06 366.259,393.57 363.208,386.59 356.229,382.662 353.615,385.719 
		348.815,387.029 344.89,382.662 346.198,379.176 342.271,372.197 339.219,366.963 334.421,365.221 330.935,358.24 328.752,349.081 
		330.496,342.103 330.496,335.561 342.708,336.87 348.378,332.946 348.378,322.477 350.997,322.477 354.052,317.68 350.125,311.574 
		350.997,308.955 359.718,308.082 359.718,303.285 361.464,301.105 362.339,296.307 364.953,296.307 366.699,293.691 
		374.988,299.795 380.22,300.231 384.144,305.902 391.555,308.082 396.354,305.03 397.663,307.211 399.407,307.648 403.333,305.467 
		408.565,306.337 410.749,309.83 414.239,311.135 416.852,310.698 424.706,298.487 432.555,297.615 443.458,300.668 
		454.797,313.316 455.669,316.806 452.766,322.622 453.343,328.436 454.218,330.475 453.927,335.999 450.441,340.068 
		449.565,343.56 451.892,347.338 448.985,348.79 448.405,351.699 451.311,355.478 452.766,358.096 454.797,358.385 455.962,360.132 
		456.54,363.622 460.904,368.561 467.3,369.725 468.17,371.467 470.497,372.634 477.479,359.259 482.132,368.27 483.295,381.031 
		481.548,384.777 473.488,384.777 470.213,385.293 458.579,383.466 456.54,381.979 450.148,383.408 448.692,386.888 
		445.784,387.758 446.281,390.958 438.054,396.477 438.054,399.074 437.063,400.94 435.566,400.94 434.444,403.029 435.895,404.699 
		435.608,407.851 438.513,410.743 437.063,411.895 433.865,411.094 433.573,413.631 427.175,417.123 426.302,418.864 
		427.469,420.608 426.302,429.042 423.685,432.237 423.925,444.119 420.128,461.936 	"/>
</g>
<g id="sinaloa">
	<polyline fill-rule="evenodd" clip-rule="evenodd" fill="none" stroke="#96FF5F" stroke-width="2" points="235.651,431.808 
		240.881,428.479 243.262,425.623 247.545,423.726 250.399,419.918 251.35,413.255 249.447,407.55 242.788,404.219 242.788,399.467 
		238.508,394.705 	"/>
	<polyline fill="none" stroke="#96FF5F" stroke-width="2" points="391.409,432.237 384.144,431.951 381.524,434.853 
		382.981,436.895 380.658,437.763 379.198,441.545 381.524,443.872 382.688,446.782 382.981,448.814 380.658,451.14 
		378.328,449.977 375.71,449.682 374.875,448.523 374.33,448.851 374.77,450.482 374.33,451.14 372.695,449.725 	"/>
	<polygon fill="#CCCCCC" points="329.63,335.665 329.63,330.071 327.905,326.837 324.93,325.965 323.662,322.04 321.065,318.55 
		310.169,317.68 307.558,300.231 303.634,295.871 304.071,290.2 298.401,286.711 296.659,284.096 292.297,283.222 289.68,285.839 
		286.625,293.252 280.087,299.372 265.038,307.754 265.365,310.034 267.27,310.984 266.318,313.835 263.938,311.456 
		264.023,311.019 263.071,310.064 260.612,315.264 260.612,312.411 255.375,319.544 254.901,322.875 255.375,325.73 
		255.375,326.204 254.426,328.107 255.375,332.387 256.802,329.536 259.179,331.436 260.134,332.387 262.987,333.814 
		263.938,336.192 266.318,336.192 270.271,333.852 271.187,334.909 269.172,338.097 268.697,336.67 266.792,337.353 
		264.889,338.097 267.27,340.951 267.747,339.521 270.124,339.521 271.075,340.951 272.501,339.521 271.549,337.144 
		275.834,338.097 275.356,342.378 276.305,341.902 277.257,343.331 277.487,343.307 278.685,343.331 280.589,344.756 
		278.538,345.523 286.295,348.563 287.724,350.941 288.027,350.588 288.676,349.036 290.103,349.515 290.103,351.892 
		289.455,351.916 289.15,352.366 293.43,352.366 294.859,354.747 296.287,354.27 298.667,355.695 300.091,358.552 296.762,358.076 
		295.811,356.649 294.859,357.598 295.811,358.076 295.811,359.505 294.384,359.026 291.052,354.747 289.624,354.747 
		292.272,358.283 295.811,364.259 296.762,365.21 297.238,364.259 298.667,364.733 298.997,360.699 300.471,362.419 300.3,364.93 
		300.566,367.113 300.091,367.59 297.715,366.638 299.616,371.394 303.277,374.3 301.993,371.871 305.799,373.775 308.178,377.103 
		310.558,377.578 311.506,379.004 314.364,377.578 312.935,377.103 313.414,376.627 315.314,376.627 316.743,381.386 
		315.792,382.336 313.886,381.858 306.263,377.311 305.788,377.786 321.971,389.475 328.634,395.183 330.537,396.607 
		334.819,401.844 337.671,408.978 346.71,418.011 350.039,426.1 351.467,426.1 356.702,430.859 362.884,438.946 364.311,438.468 
		363.834,439.421 369.543,445.127 371.447,449.888 372.399,449.888 371.922,450.836 374.075,451.14 374.621,448.523 
		375.455,449.682 380.402,451.14 382.726,448.814 381.269,443.872 378.943,441.545 380.402,437.763 382.726,436.895 
		381.269,434.853 383.888,431.951 383.452,428.46 379.528,428.894 376.475,426.715 376.475,424.095 373.854,421.047 
		372.982,414.065 369.058,411.449 367.751,405.783 366.444,404.035 366.875,400.111 368.191,397.06 366.004,393.57 362.953,386.59 
		355.974,382.662 353.359,385.719 348.56,387.029 344.634,382.662 345.942,379.176 342.016,372.197 338.963,366.963 
		334.165,365.221 330.68,358.24 328.497,349.081 330.24,342.103 	"/>
	<path fill="none" stroke="#96FF5F" stroke-width="2" d="M265.292,307.754"/>
</g>
<g id="nayarit">
	<polygon fill="#CCCCCC" points="372.654,449.888 372.177,450.836 375.032,456.072 374.685,465.75 374.553,469.388 379.786,477.477 
		381.688,483.663 383.457,484.491 389.778,487.465 390.253,489.371 389.606,490.401 387.873,493.174 388.826,497.458 
		387.873,503.158 385.021,504.591 385.021,513.813 389.283,513.307 386.923,516.194 389.782,515.721 390.836,518.068 
		394.898,513.129 396.356,510.803 394.028,507.552 397.812,507.84 400.715,505.227 403.333,504.059 405.66,505.508 407.697,507.257 
		410.6,507.552 414.092,511.915 416.418,512.783 419.91,516.273 420.486,509.002 423.685,506.971 424.556,504.642 424.556,502.316 
		423.108,500.28 423.108,498.531 429.212,497.661 431.539,495.336 431.977,493.079 424.123,487.267 427.036,476.725 
		424.123,474.112 420.779,470.765 418.019,467.713 420.128,461.936 419.471,460.085 418.602,456.159 414.671,456.159 
		411.188,453.319 410.6,450.557 409.223,446.816 406.022,445.361 402.752,447.65 399.696,449.432 395.052,447.105 396.645,444.744 
		401.298,442.131 400.138,439.216 399.555,436.314 391.409,432.237 384.144,431.951 381.524,434.853 382.981,436.895 
		380.658,437.763 379.198,441.545 381.524,443.872 382.688,446.782 382.981,448.814 380.658,451.14 378.328,449.977 375.71,449.682 
		374.875,448.523 374.33,448.851 374.77,450.482 374.33,451.14 372.695,449.725 	"/>
</g>
<g id="guanajuato">
	<path fill="none" stroke="#96FF5F" stroke-width="2" d="M593.496,489.085"/>
	<path fill="none" stroke="#96FF5F" stroke-width="2" d="M572.776,491.269"/>
	<polygon fill="#CCCCCC" points="560.349,536.627 557.727,534.229 554.675,533.138 553.59,531.392 552.935,528.777 550.313,527.9 
		549.881,525.504 548.354,523.104 549.226,521.141 547.479,519.614 546.612,517.213 546.824,513.074 550.098,508.712 
		552.06,510.017 554.461,510.017 556.859,507.84 560.569,510.235 563.182,508.06 562.966,506.094 563.401,503.696 565.364,502.608 
		566.021,499.334 569.073,499.551 570.375,501.298 573.434,500.426 574.307,499.334 576.924,498.022 576.702,496.061 
		573.867,496.061 573.867,493.231 572.776,491.269 571.247,489.306 568.195,488.648 564.054,486.686 563.401,485.816 
		560.13,484.286 559.039,482.107 553.152,481.454 549.446,482.322 548.571,486.032 547.045,487.56 544.646,488.213 542.684,486.468 
		540.721,486.686 538.977,484.943 536.14,483.85 531.997,478.839 528.942,479.053 525.893,479.492 522.841,478.183 521.315,476.22 
		516.296,476.22 513.679,478.618 514.769,480.796 513.679,482.978 511.715,484.506 509.968,486.686 510.409,488.867 
		512.152,491.705 512.366,493.884 509.968,494.974 507.356,495.408 503.43,501.298 498.635,507.188 497.107,510.673 
		494.057,513.947 494.706,518.089 498.635,519.614 499.723,521.58 497.759,522.454 493.617,525.504 494.057,528.339 497.324,527.9 
		497.759,529.209 499.503,529.865 500.159,533.575 501.248,535.319 503.649,534.446 505.606,534.668 508.226,534.668 
		509.752,533.354 511.063,531.392 515.641,530.082 516.079,532.7 517.605,537.932 520.002,540.549 521.095,542.949 522.617,542.078 
		524.149,542.078 526.544,540.769 529.379,539.898 531.348,539.674 532.65,542.294 534.831,545.565 542.027,546.658 
		547.479,543.606 550.313,543.823 554.024,541.643 558.167,539.674 561.438,539.023 	"/>
</g>
<g id="aguascalientes">
	<polygon fill="#CCCCCC" points="476.608,480.506 482.423,482.254 488.528,483.129 493.759,479.053 495.797,475.273 
		500.447,473.529 498.704,470.331 501.903,469.172 497.253,466.553 497.253,462.479 495.506,461.028 493.184,460.447 
		492.597,457.828 489.981,457.828 486.784,454.046 485.62,456.373 482.712,457.538 479.512,459.57 476.317,460.15 475.445,461.895 
		473.697,466.553 471.372,468.004 469.918,471.787 467.887,473.529 467.887,477.893 470.213,481.381 472.828,479.637 	"/>
</g>
<g id="jalisco">
	<polyline fill="#CCCCCC" points="408.377,572.571 405.947,571.667 403.568,569.287 407.855,572.144 408.334,569.765 
		405.001,569.765 401.671,567.387 398.82,563.581 397.87,559.773 394.061,557.398 394.065,551.877 392.075,548.892 395.794,545.062 
		394.364,537.929 388.711,531.767 389.775,526.966 388.828,524.761 392.631,522.858 392.631,520.477 390.836,518.068 
		394.898,513.129 396.356,510.803 394.028,507.552 397.812,507.84 400.715,505.227 403.333,504.059 405.66,505.508 407.697,507.257 
		410.6,507.552 414.092,511.915 416.418,512.783 419.91,516.273 420.486,509.002 423.685,506.971 424.556,504.642 424.556,502.316 
		423.108,500.28 423.108,498.531 429.212,497.661 431.539,495.336 431.977,493.079 424.123,487.267 427.036,476.725 
		424.123,474.112 420.779,470.765 418.019,467.713 420.128,461.936 427.175,459.57 430.956,459.862 432.703,456.955 
		432.409,452.302 429.795,450.557 429.503,446.782 430.373,442.999 438.513,444.16 437.934,447.362 435.317,449.106 
		435.608,453.467 434.444,456.373 435.317,461.606 438.226,455.791 438.226,451.428 439.684,448.235 443.749,451.428 
		443.171,453.758 441.425,459.57 441.714,462.479 441.425,464.512 442.877,466.553 445.496,465.098 448.692,466.553 
		449.565,463.065 451.595,461.895 451.595,457.828 450.148,456.084 450.441,454.046 452.766,451.428 458.869,456.373 
		457.704,458.408 456.256,458.991 456.834,460.15 460.033,459.28 462.651,461.028 462.071,463.35 458.869,465.68 460.904,468.004 
		459.161,470.043 459.161,471.493 457.126,472.946 454.218,471.203 451.595,473.235 449.273,474.691 445.203,480.218 
		445.496,486.609 442.877,488.648 440.556,487.484 439.098,488.361 438.809,493.884 436.77,499.119 440.839,498.827 
		442.298,501.151 444.621,501.734 446.946,502.608 448.985,502.316 451.311,504.347 454.218,503.478 457.126,504.347 
		458.869,505.227 461.197,503.478 460.033,499.406 460.904,497.084 467.3,498.827 469.045,496.504 471.372,495.917 471.956,493.594 
		474.866,493.594 475.445,492.138 473.991,490.682 475.735,490.104 475.445,486.324 471.372,484.873 469.045,483.129 
		470.213,481.381 472.828,479.637 476.608,480.506 482.423,482.254 488.528,483.129 493.759,479.053 495.797,475.273 
		500.447,473.529 498.704,470.331 501.903,469.172 507.425,472.075 512.078,475.564 515.207,474.691 516.296,476.22 
		513.679,478.618 514.769,480.796 513.679,482.978 511.715,484.506 509.968,486.686 510.409,488.867 512.152,491.705 
		512.366,493.884 509.968,494.974 507.356,495.408 503.43,501.298 498.635,507.188 497.107,510.673 494.057,513.947 
		494.706,518.089 498.635,519.614 499.723,521.58 497.759,522.454 493.617,525.504 494.057,528.339 490.128,529.648 487.51,529.43 
		484.892,530.517 483.149,530.082 480.531,530.739 480.098,532.265 477.262,532.7 476.171,534.229 474.206,534.446 472.244,533.792 
		464.068,535.864 462.651,536.915 460.033,538.079 459.161,541.86 459.741,545.349 461.779,543.894 464.399,544.474 
		467.596,544.474 469.045,546.513 471.084,545.93 474.279,547.964 470.497,553.779 472.535,556.398 473.697,559.593 
		472.828,562.505 477.771,561.052 479.512,564.247 474.279,571.521 469.627,570.644 467.596,572.681 465.269,574.135 
		457.126,579.949 455.384,580.826 455.093,578.783 453.343,577.33 450.441,580.237 448.114,579.078 447.242,577.33 445.496,575.297 
		446.367,570.644 445.784,566.868 443.749,564.83 442.007,562.798 439.388,562.216 435.608,563.953 428.05,562.216 427.175,563.375 
		423.98,566.573 420.196,566.868 417.002,567.737 414.092,568.024 412.344,569.483 410.6,568.61 408.565,572.681 	"/>
</g>
<g id="colima">
	<polygon fill-rule="evenodd" clip-rule="evenodd" fill="#CCCCCC" points="429.735,582.607 426.306,581.191 417.744,577.655 
		417.27,574.324 413.562,574.521 408.377,572.571 410.6,568.61 412.344,569.483 414.092,568.024 417.002,567.737 420.196,566.868 
		423.98,566.573 427.175,563.375 428.05,562.216 435.608,563.953 439.388,562.216 442.007,562.798 443.749,564.83 445.784,566.868 
		446.367,570.644 445.496,575.297 447.242,577.33 448.114,579.078 444.333,582.567 442.298,581.983 441.714,584.894 439.97,586.638 
		437.354,589.25 	"/>
</g>
<g id="veracruz">
	<path fill="none" stroke="#96FF5F" stroke-width="2" d="M647.285,564.538"/>
	<polyline fill="#CCCCCC" points="639.435,460.15 636.816,461.895 634.783,461.606 634.493,458.12 631.003,456.591 628.386,455.065 
		626.424,453.319 623.806,452.739 622.355,455.065 620.316,455.72 616.178,454.046 614.217,457.247 618.792,461.028 
		621.117,462.188 621.848,463.35 617.7,465.098 617.991,468.295 616.827,470.62 614.217,470.62 614.217,474.402 616.537,476.725 
		615.956,478.766 613.923,480.218 611.309,481.96 613.631,487.193 615.668,489.229 616.614,492.353 616.827,494.171 615.3,496.061 
		617.118,497.661 619.446,500.569 620.609,499.696 622.644,498.531 624.391,500.28 626.136,500.862 627.883,503.478 
		627.005,506.678 625.266,509.874 625.843,512.783 625.266,513.656 621.481,510.745 618.863,511.915 618.287,514.529 
		617.118,515.399 616.827,516.856 618.287,516.563 620.316,515.69 618.209,519.18 616.178,520.343 615.3,523.538 613.271,524.703 
		615.595,529.648 617.049,530.517 619.086,528.479 622.281,527.028 624.896,523.831 627.224,523.253 629.844,518.893 
		631.874,519.762 634.709,522.017 636.675,518.525 635.727,516.344 636.893,515.47 638.057,511.398 640.376,511.327 
		642.346,512.711 642.346,515.036 642.635,518.525 644.959,520.852 648.157,521.141 649.611,523.179 647.285,523.756 
		645.543,525.504 642.346,525.504 642.346,528.699 643.213,531.607 642.346,534.514 644.376,536.263 646.707,535.685 
		648.453,538.003 651.65,535.685 652.522,532.193 655.716,532.481 656.303,534.229 663.278,536.627 663.86,537.502 660.079,539.533 
		656.887,547.379 655.425,554.359 654.265,554.945 653.393,556.977 656.011,563.667 663.278,566.279 666.475,565.994 
		669.383,568.024 667.054,569.773 664.149,570.062 658.919,572.099 659.208,576.166 659.501,581.113 657.171,583.727 
		655.716,586.928 657.171,589.25 664.149,589.835 664.732,593.326 666.475,595.652 669.969,594.488 672.004,592.745 
		675.783,594.488 677.816,599.138 681.162,592.018 678.762,587.654 679.418,586.565 681.162,587.001 683.776,588.743 
		687.921,591.143 689.227,594.199 690.76,595.722 690.76,597.683 693.807,599.435 694.027,601.612 697.588,604.957 699.113,606.698 
		699.908,612.822 701.872,613.692 706.664,612.822 708.412,613.477 711.545,612.585 710.016,617.604 708.274,620.219 
		711.332,625.453 715.033,629.161 717.215,626.979 718.524,627.636 720.704,627.417 724.56,621.745 726.957,621.09 728.917,619.127 
		732.406,620.219 732.19,621.745 729.572,622.618 729.572,625.016 732.627,628.505 739.171,633.743 743.312,633.015 
		744.183,635.633 743.312,636.723 743.095,638.25 779.297,636.938 785.838,632.144 788.231,630.396 784.097,626.473 
		785.617,623.201 785.838,621.46 782.564,617.528 778.422,616.002 776.021,615.351 774.499,612.077 772.969,612.299 
		770.789,611.207 772.898,611.178 770.054,613.841 768.093,610.787 775.594,611.925 774.502,609.964 755.147,609.583 
		758.151,611.652 757.198,608.796 752.923,605.468 743.73,597.22 739.452,596.457 735.644,595.789 729.459,591.027 716.14,591.027 
		714.227,589.988 710.903,588.174 709.954,588.174 704.725,585.794 702.346,579.136 699.492,579.136 698.794,577.465 
		698.503,566.432 696.601,566.432 691.843,562.623 691.376,557.875 689.464,555.968 689.062,554.531 686.137,544.076 
		678.051,533.606 667.146,522.123 660.45,515.057 659.026,509.819 657.393,506.731 649.51,491.75 648.791,488.455 646.181,486.991 
		642.847,480.809 649.375,482.754 651.091,485.368 652.24,487.719 654.143,493.432 655.913,483.272 647.348,475.743 
		644.503,470.732 644.12,469.388 	"/>
</g>
<g id="df">
	<polygon fill="#CCCCCC" points="591.461,575.593 590.586,573.263 589.72,570.933 587.679,567.737 588.551,565.122 592.331,563.081 
		592.912,560.472 593.783,559.886 594.949,557.56 596.401,557.848 596.116,560.176 601.637,565.41 601.05,568.315 601.928,570.644 
		601.05,571.807 602.22,573.263 601.349,575.882 597.566,576.748 595.24,575.882 	"/>
</g>
<g id="edo_mex">
	<polygon fill="#CCCCCC" points="614.143,555.529 614.143,550.29 612.399,548.839 609.778,547.379 606.869,547.379 605.414,548.55 
		603.382,547.964 601.928,549.998 599.891,547.676 601.05,545.93 601.05,544.187 603.382,541.86 602.22,540.403 599.602,541.86 
		596.695,540.986 593.496,542.732 591.171,543.606 591.461,546.222 591.171,548.252 588.843,548.252 587.97,550.29 586.229,550.29 
		586.518,547.379 585.061,547.091 583.319,542.732 584.771,540.986 583.03,537.206 579.826,537.502 575.47,536.041 572.559,533.718 
		570.528,531.687 568.781,533.422 569.358,536.334 567.039,536.915 562.966,541.563 562.382,544.187 562.382,547.676 
		560.638,549.998 559.188,554.07 557.727,558.435 558.894,563.667 555.698,565.701 556.274,569.483 553.661,574.135 554.82,577.33 
		553.661,579.656 551.04,584.602 552.206,590.123 552.498,595.358 555.112,598.558 558.605,600.303 561.219,597.104 
		563.251,596.525 565.291,592.163 569.652,591.292 574.014,590.995 576.344,587.803 578.375,586.928 580.697,588.673 
		583.319,589.25 585.352,587.219 585.061,585.184 586.518,581.693 589.426,580.529 589.426,578.499 591.461,575.593 
		590.586,573.263 589.72,570.933 587.679,567.737 588.551,565.122 592.331,563.081 592.912,560.472 593.783,559.886 594.949,557.56 
		596.401,557.848 596.116,560.176 601.637,565.41 601.05,568.315 601.928,570.644 601.05,571.807 602.22,573.263 601.349,575.882 
		605.129,578.205 604.543,580.826 606.869,580.529 609.778,579.949 610.942,578.783 612.685,578.499 613.845,576.461 
		612.685,571.224 612.102,566.573 612.399,562.798 612.399,560.472 610.069,558.435 610.358,556.977 612.685,556.977 	"/>
</g>
<g id="morelos">
	<polygon fill="#CCCCCC" points="596.695,598.85 595.24,595.358 592.912,594.78 592.627,598.271 590.586,598.85 588.26,597.104 
		588.26,595.069 586.518,594.199 585.644,592.163 583.898,590.995 583.319,589.25 585.352,587.219 585.061,585.184 586.518,581.693 
		589.426,580.529 589.426,578.499 591.461,575.593 595.24,575.882 597.566,576.748 601.349,575.882 605.129,578.205 
		604.543,580.826 606.869,580.529 609.778,579.949 610.942,578.783 612.685,578.499 612.685,581.404 610.649,582.856 
		609.485,586.638 612.685,589.25 610.942,590.995 611.817,597.683 610.649,598.85 609.485,597.104 606.869,595.94 602.8,599.724 
		598.73,601.464 	"/>
</g>
<g id="tlaxcala">
	<polygon fill="#CCCCCC" points="615.3,561.631 617.049,563.953 617.628,565.994 620.25,567.445 622.281,571.521 624.896,572.681 
		626.932,572.97 628.974,574.135 633.327,570.356 636.238,571.521 639.724,570.062 639.435,568.024 642.056,567.158 
		645.251,567.737 646.707,566.279 647.285,564.538 644.376,563.953 642.056,560.176 639.144,561.339 637.401,559.593 
		637.691,557.848 633.912,555.529 631.586,552.91 629.844,554.654 627.224,554.07 626.059,552.325 623.444,552.616 620.822,555.815 
		618.5,556.106 614.143,555.529 612.685,556.977 610.358,556.977 610.069,558.435 612.399,560.472 612.399,562.798 	"/>
</g>
<g id="queretaro">
	<polygon fill="#CCCCCC" points="603.522,498.244 600.253,499.551 596.548,499.551 593.935,500.646 591.532,501.514 
		588.696,500.646 587.824,501.949 586.304,502.17 587.389,504.347 586.304,506.094 586.304,507.84 583.03,512.854 581.502,515.909 
		582.81,518.31 579.325,520.053 574.523,521.58 571.903,522.235 571.247,526.593 570.528,531.687 568.781,533.422 569.358,536.334 
		567.039,536.915 562.966,541.563 561.438,539.023 560.349,536.627 557.727,534.229 554.675,533.138 553.59,531.392 
		552.935,528.777 550.313,527.9 549.881,525.504 548.354,523.104 549.226,521.141 547.479,519.614 546.612,517.213 546.824,513.074 
		550.098,508.712 552.06,510.017 554.461,510.017 556.859,507.84 560.569,510.235 563.182,508.06 562.966,506.094 563.401,503.696 
		565.364,502.608 566.021,499.334 569.073,499.551 570.375,501.298 573.434,500.426 574.307,499.334 576.924,498.022 
		576.702,496.061 573.867,496.061 573.867,493.231 572.776,491.269 574.084,489.085 574.307,486.468 576.266,486.032 
		578.226,488.431 579.758,490.396 581.722,490.396 584.336,489.74 586.304,489.523 586.954,486.032 588.48,486.032 590.007,485.378 
		590.007,483.635 591.751,482.322 593.496,489.085 594.586,493.231 597.634,496.718 600.911,496.061 601.349,497.589 	"/>
</g>
<g id="hidalgo">
	<polygon fill="#CCCCCC" points="634.709,522.017 631.874,519.762 629.844,518.893 627.224,523.253 624.896,523.831 
		622.281,527.028 619.086,528.479 617.049,530.517 615.595,529.648 613.271,524.703 615.3,523.538 616.178,520.343 618.209,519.18 
		620.316,515.69 618.287,516.563 616.827,516.856 617.118,515.399 618.287,514.529 618.863,511.915 621.481,510.745 
		625.266,513.656 625.843,512.783 625.266,509.874 627.005,506.678 627.883,503.478 626.136,500.862 624.391,500.28 
		622.644,498.531 620.609,499.696 619.446,500.569 617.118,497.661 615.3,496.061 616.827,494.171 616.614,492.353 615.081,492.353 
		612.905,493.231 611.817,495.844 612.905,498.244 612.247,499.119 610.069,497.807 606.36,498.681 605.923,499.988 
		604.397,499.988 603.522,498.244 600.253,499.551 596.548,499.551 593.935,500.646 591.532,501.514 588.696,500.646 
		587.824,501.949 586.304,502.17 587.389,504.347 586.304,506.094 586.304,507.84 583.03,512.854 581.502,515.909 582.81,518.31 
		579.325,520.053 574.523,521.58 571.903,522.235 571.247,526.593 570.528,531.687 572.559,533.718 575.47,536.041 579.826,537.502 
		583.03,537.206 584.771,540.986 583.319,542.732 585.061,547.091 586.518,547.379 586.229,550.29 587.97,550.29 588.843,548.252 
		591.171,548.252 591.461,546.222 591.171,543.606 593.496,542.732 596.695,540.986 599.602,541.86 602.22,540.403 603.382,541.86 
		601.05,544.187 601.05,545.93 599.891,547.676 601.928,549.998 603.382,547.964 605.414,548.55 606.869,547.379 609.778,547.379 
		612.399,548.839 614.143,550.29 614.143,555.529 618.5,556.106 620.822,555.815 623.444,552.616 626.059,552.325 624.896,549.419 
		625.186,546.803 628.386,541.563 628.386,538.658 629.26,536.627 627.224,534.01 624.31,534.877 623.733,533.718 624.896,530.517 
		627.511,531.102 629.844,528.479 631.874,525.576 634.493,524.122 	"/>
</g>
<g id="quintanaroo">
	<polyline fill-rule="evenodd" clip-rule="evenodd" fill="#CCCCCC" points="936.31,549.815 940.145,597.9 945.191,599.356 
		951.807,590.301 951.807,585.621 955.278,579.773 958.107,578.316 961.894,578.316 964.731,575.682 966.621,566.911 
		969.458,563.404 971.348,564.278 971.666,576.848 974.502,578.898 976.708,583.866 978.597,585.915 980.489,586.207 
		981.121,585.621 981.749,579.773 982.697,574.513 983.32,569.543 986.791,555.218 988.049,550.245 984.583,550.245 
		982.378,551.417 981.749,547.615 985.852,543.819 987.105,540.6 987.105,537.678 984.902,537.678 982.697,539.725 980.802,538.85 
		980.171,537.678 981.749,532.416 986.476,527.735 986.476,522.771 984.902,518.089 985.214,509.324 992.775,499.379 
		997.824,490.027 997.824,486.812 999.713,476.87 999.081,469.56 997.824,468.1 995.934,466.638 992.957,466.064 983.698,464.95 
		983.413,465.387 983.698,466.553 983.996,474.112 985.011,481.96 979.778,495.917 936.31,549.815 	"/>
</g>
<g id="yucatan">
	<polyline fill="#CCCCCC" points="890.185,497.917 890.487,494.759 890.212,492.221 890.212,490.799 891.565,489.694 897.82,484.61 
		905.082,480.811 907.81,479.379 922.224,475.888 927.336,474.641 939.208,471.77 943.967,470.341 947.292,467.014 952.047,465.106 
		959.185,464.632 962.04,462.73 967.272,462.253 977.257,463.678 979.164,464.156 983.683,464.976 984.398,465.106 983.698,466.553 
		983.996,474.112 985.011,481.96 979.778,495.917 936.31,549.815 903.166,508.928 902.288,510.235 901.306,510.891 899.894,510.673 
		897.602,510.017 896.293,509.583 896.293,508.82 896.179,507.84 895.638,507.4 893.458,507.4 891.17,507.51 890.185,497.917 
		889.748,497.264 	"/>
</g>
<g id="campeche">
	<polygon fill="#CCCCCC" points="833.246,586.682 833.682,589.444 834.99,590.757 836.887,589.739 841.897,589.521 843.06,600.566 
		844.222,601.004 844.949,602.898 847.638,603.256 849.098,605.003 850.401,605.583 850.691,606.745 853.165,608.051 
		854.747,603.21 855.622,601.32 855.185,599.724 855.767,597.249 858.815,596.812 860.709,598.558 862.532,598.434 864.98,599.015 
		867.11,599.435 868.559,601.464 876.701,600.737 877.726,610.688 935.736,603.455 935.736,602.282 935.419,598.481 940.145,597.9 
		936.31,549.815 903.166,508.928 902.288,510.235 901.306,510.891 899.894,510.673 897.602,510.017 896.293,509.583 896.293,508.82 
		896.179,507.84 895.638,507.4 893.458,507.4 891.17,507.51 890.185,497.917 889.748,497.264 887.635,500.942 887.031,506.905 
		886.88,508.397 887.831,512.673 887.831,524.095 889.736,527.896 887.356,531.706 882.597,536.462 881.168,552.638 873.562,560.25 
		867.849,565.006 859.289,569.287 856.914,572.618 859.766,572.141 860.242,572.141 865.468,574.521 864.522,578.799 
		863.84,579.716 858.341,583.08 858.341,584.03 858.341,584.03 858.812,585.94 854.682,588.96 854.206,588.477 851.828,588.002 
		852.3,587.533 851.352,586.102 851.828,585.629 852.779,584.676 847.544,580.871 831.727,584.21 	"/>
</g>
<g id="chiapas">
	<polygon fill="#CCCCCC" points="793.823,614.498 795.784,614.065 796.877,612.752 799.274,612.97 801.891,614.498 803.719,609.244 
		807.866,610.114 808.08,612.733 806.988,614.261 807.207,618.399 806.555,621.67 811.789,621.67 814.624,625.815 815.492,626.688 
		817.672,626.905 819.638,624.727 829.666,615.351 830.758,613.169 837.736,610.337 839.702,609.68 846.548,611.473 
		848.513,608.856 851.565,611.036 850.606,612.733 854.529,613.821 856.055,617.528 856.274,619.712 860.853,621.019 
		861.074,622.979 863.258,623.64 864.997,624.727 864.125,626.473 865.141,632.104 865.141,634.517 868.608,634.737 
		879.008,641.752 884.682,642.92 887.201,644.672 891.613,651.984 893.505,653.444 898.867,654.907 899.497,656.076 
		899.497,663.093 900.438,665.142 899.807,668.356 900.124,670.109 857.89,670.109 841.184,699.05 841.184,701.972 846.548,704.315 
		846.548,706.944 844.023,711.327 844.967,714.543 846.231,716.882 845.912,720.682 843.078,724.778 842.133,727.404 
		841.506,727.989 839.298,727.701 835.829,723.896 835.829,722.727 821.711,709.611 820.406,707.835 821.711,707.237 
		821.711,706.763 819.33,705.336 818.855,706.288 814.574,703.909 806.486,696.299 793.641,687.258 779.377,679.171 
		782.227,678.222 780.324,675.844 773.406,673.792 774.499,671.178 773.624,668.781 774.711,665.724 771.226,659.836 
		774.279,653.295 773.406,649.591 775.366,648.938 778.639,646.754 778.205,642.829 779.73,641.954 779.297,636.938 
		785.838,632.144 788.231,630.396 791.941,624.51 792.381,621.46 794.996,619.274 	"/>
</g>
<g id="tabasco">
	<polyline fill-rule="evenodd" clip-rule="evenodd" fill="#CCCCCC" points="793.823,614.498 795.651,610.337 794.776,611.644 
		794.559,613.169 793.905,615.569 794.996,619.274 792.381,621.46 791.941,624.51 788.231,630.396 784.097,626.473 785.617,623.201 
		785.838,621.46 782.564,617.528 778.422,616.002 776.021,615.351 774.499,612.077 772.969,612.299 770.789,611.207 
		768.093,610.787 770.054,613.841 772.898,611.178 782.888,606.893 783.841,606.42 791.453,602.615 797.635,601.188 
		806.669,600.709 807.624,600.709 815.234,599.761 823.287,587.055 823.824,587.299 824.234,586.102 831.213,584.21 
		833.246,586.682 833.682,589.444 834.99,590.757 836.887,589.739 841.897,589.521 843.06,600.566 844.222,601.004 844.949,602.898 
		847.638,603.256 849.098,605.003 850.401,605.583 850.691,606.745 850.389,608.153 853.633,610.764 857.568,610.231 
		852.728,608.83 854.747,603.21 855.622,601.32 855.185,599.724 855.767,597.249 858.815,596.812 860.709,598.558 862.532,598.434 
		864.98,599.015 867.11,599.435 868.559,601.464 876.701,600.737 877.112,610.764 877.112,630.937 867.032,631.225 865.141,632.104 
		864.125,626.473 864.997,624.727 863.258,623.64 861.074,622.979 860.853,621.019 856.274,619.712 856.055,617.528 
		854.529,613.821 850.606,612.733 851.565,611.036 848.513,608.856 846.548,611.473 839.702,609.68 837.736,610.337 
		830.758,613.169 829.666,615.351 819.638,624.727 817.672,626.905 815.492,626.688 814.624,625.815 811.789,621.67 806.555,621.67 
		807.207,618.399 806.988,614.261 808.08,612.733 807.866,610.114 803.719,609.244 801.891,614.498 799.274,612.97 796.877,612.752 
		795.784,614.065 	"/>
</g>
<g id="oaxaca">
	<polygon fill="#CCCCCC" points="779.297,636.938 743.095,638.25 743.312,636.723 744.183,635.633 743.312,633.015 739.171,633.743 
		732.627,628.505 729.572,625.016 729.572,622.618 732.19,621.745 732.406,620.219 728.917,619.127 726.957,621.09 724.56,621.745 
		720.704,627.417 718.524,627.636 717.215,626.979 715.033,629.161 711.332,625.453 708.274,620.219 710.016,617.604 
		711.545,612.585 708.412,613.477 706.664,612.822 701.872,613.692 699.908,612.822 699.113,606.698 697.588,604.957 
		694.027,601.612 693.807,599.435 690.76,597.683 690.76,595.722 689.227,594.199 687.921,591.143 683.776,588.743 681.162,587.001 
		679.418,586.565 678.762,587.654 681.162,592.018 677.816,599.138 675.271,602.922 673.963,604.664 670.476,604.884 
		668.293,606.847 666.329,607.065 665.24,606.194 660.665,606.629 654.556,611.207 653.463,614.913 651.722,614.696 650.412,609.46 
		647.14,607.282 648.231,602.047 646.485,600.737 644.093,603.138 642.125,603.352 639.945,609.898 642.995,612.514 
		642.995,614.913 641.255,616.002 638.639,616.002 636.675,614.261 627.08,614.481 626.424,617.528 624.461,616.002 
		622.281,618.549 622.06,620.149 622.06,623.416 621.848,628.218 621.628,632.578 623.806,635.633 625.329,639.553 625.771,642.392 
		628.17,643.697 629.476,647.846 632.528,649.807 634.274,657.004 635.146,658.31 634.493,661.585 631.003,663.547 630.568,665.509 
		624.029,667.469 622.281,671.828 618.209,674.449 633.331,677.273 634.76,678.222 630.955,678.222 641.424,683.454 
		641.607,683.771 641.897,683.932 644.749,685.834 666.63,687.737 678.051,693.442 687.563,695.825 690.891,696.299 
		692.318,694.394 701.359,693.922 709.445,689.162 715.7,686.858 727.519,682.5 732.755,676.793 736.56,675.366 737.035,673.94 
		748.8,673.756 747.848,672.805 744.661,672.038 740.852,672.038 740.365,672.038 739.414,671.091 740.365,669.66 742.743,669.184 
		744.173,666.331 746.072,665.379 749.405,668.711 748.455,670.609 748.931,671.556 753.211,667.278 756.067,668.711 
		755.115,671.091 751.304,673.467 758.446,673.467 762.528,674.523 775.849,678.329 776.042,677.747 774.615,676.32 
		770.337,675.366 769.383,673.94 764.629,673.467 763.384,672.745 762.25,672.598 761.3,671.556 762.25,669.184 769.383,672.515 
		771.762,671.091 773.406,673.792 774.499,671.178 773.624,668.781 774.711,665.724 771.226,659.836 774.279,653.295 
		773.406,649.591 775.366,648.938 778.639,646.754 778.205,642.829 779.73,641.954 	"/>
	<polyline fill="none" stroke="#ED1C24" stroke-width="2" points="601.637,605.538 604.543,607.866 605.414,609.608 
		609.195,610.188 608.907,612.514 609.778,614.552 612.976,616.294 616.753,614.552 620.822,616.002 622.281,617.749 	"/>
</g>
<g id="guerrero">
	<polygon fill="#CCCCCC" points="610.022,665.854 607.646,665.854 606.696,666.809 600.51,664.428 577.677,660.62 571.973,657.762 
		571.019,654.91 569.383,655.073 567.685,653.966 543.906,645.872 530.105,641.115 528.208,637.788 517.263,632.078 514.41,628.273 
		512.505,628.273 509.651,626.847 504.422,619.236 498.709,615.428 495.381,614.955 492.308,617.459 491.726,613.97 492.02,610.481 
		494.637,607.866 498.998,606.991 503.066,605.247 501.903,601.174 501.903,597.399 501.612,595.358 504.227,593.035 
		507.425,593.326 510.915,592.745 512.366,594.488 514.698,596.231 517.605,596.231 522.841,594.488 526.038,596.525 
		529.236,596.812 532.435,596.525 534.473,599.138 537.671,597.683 539.999,598.558 542.904,600.59 544.646,602.047 
		546.974,600.303 547.551,597.399 544.935,593.614 546.388,590.123 548.718,588.091 551.04,584.602 552.206,590.123 
		552.498,595.358 555.112,598.558 558.605,600.303 561.219,597.104 563.251,596.525 565.291,592.163 569.652,591.292 
		574.014,590.995 576.344,587.803 578.375,586.928 580.697,588.673 583.319,589.25 583.898,590.995 585.644,592.163 
		586.518,594.199 588.26,595.069 588.26,597.104 590.586,598.85 592.627,598.271 592.912,594.78 595.24,595.358 596.695,598.85 
		598.73,601.464 599.311,604.377 601.637,605.538 604.543,607.866 605.414,609.608 609.195,610.188 608.907,612.514 
		609.778,614.552 612.976,616.294 616.753,614.552 620.822,616.002 622.281,617.749 622.06,620.149 622.06,623.416 621.848,628.218 
		621.628,632.578 623.806,635.633 625.329,639.553 625.771,642.392 628.17,643.697 629.476,647.846 632.528,649.807 
		634.274,657.004 635.146,658.31 634.493,661.585 631.003,663.547 630.568,665.509 624.029,667.469 622.281,671.828 
		618.209,674.449 	"/>
</g>
<g id="puebla">
	<polygon fill="#CCCCCC" points="677.816,599.138 675.783,594.488 672.004,592.745 669.969,594.488 666.475,595.652 
		664.732,593.326 664.149,589.835 657.171,589.25 655.716,586.928 657.171,583.727 659.501,581.113 659.208,576.166 
		658.919,572.099 664.149,570.062 667.054,569.773 669.383,568.024 666.475,565.994 663.278,566.279 656.011,563.667 
		653.393,556.977 654.265,554.945 655.425,554.359 656.887,547.379 660.079,539.533 663.86,537.502 663.278,536.627 
		656.303,534.229 655.716,532.481 652.522,532.193 651.65,535.685 648.453,538.003 646.707,535.685 644.376,536.263 
		642.346,534.514 643.213,531.607 642.346,528.699 642.346,525.504 645.543,525.504 647.285,523.756 649.611,523.179 
		648.157,521.141 644.959,520.852 642.635,518.525 642.346,515.036 642.346,512.711 640.376,511.327 638.057,511.398 
		636.893,515.47 635.727,516.344 636.675,518.525 634.709,522.017 634.493,524.122 631.874,525.576 629.844,528.479 
		627.511,531.102 624.896,530.517 623.733,533.718 624.31,534.877 627.224,534.01 629.26,536.627 628.386,538.658 628.386,541.563 
		625.186,546.803 624.896,549.419 626.059,552.325 627.224,554.07 629.844,554.654 631.586,552.91 633.912,555.529 637.691,557.848 
		637.401,559.593 639.144,561.339 642.056,560.176 644.376,563.953 647.285,564.538 646.707,566.279 645.251,567.737 
		642.056,567.158 639.435,568.024 639.724,570.062 636.238,571.521 633.327,570.356 628.974,574.135 626.932,572.97 
		624.896,572.681 622.281,571.521 620.25,567.445 617.628,565.994 617.049,563.953 615.3,561.631 612.399,562.798 612.102,566.573 
		612.685,571.224 613.845,576.461 612.685,578.499 612.685,581.404 610.649,582.856 609.485,586.638 612.685,589.25 
		610.942,590.995 611.817,597.683 610.649,598.85 609.485,597.104 606.869,595.94 602.8,599.724 598.73,601.464 599.311,604.377 
		601.637,605.538 604.543,607.866 605.414,609.608 609.195,610.188 608.907,612.514 609.778,614.552 612.976,616.294 
		616.753,614.552 620.822,616.002 622.281,617.749 624.461,616.002 626.424,617.528 627.08,614.481 636.675,614.261 
		638.639,616.002 641.255,616.002 642.995,614.913 642.995,612.514 639.945,609.898 642.125,603.352 644.093,603.138 
		646.485,600.737 648.231,602.047 647.14,607.282 650.412,609.46 651.722,614.696 653.463,614.913 654.556,611.207 660.665,606.629 
		665.24,606.194 666.329,607.065 668.293,606.847 670.476,604.884 673.963,604.664 675.271,602.922 	"/>
</g>
<g id="michoacan">
	<polygon fill="#CCCCCC" points="492.308,617.459 491.726,613.97 492.02,610.481 494.637,607.866 498.998,606.991 503.066,605.247 
		501.903,601.174 501.903,597.399 501.612,595.358 504.227,593.035 507.425,593.326 510.915,592.745 512.366,594.488 
		514.698,596.231 517.605,596.231 522.841,594.488 526.038,596.525 529.236,596.812 532.435,596.525 534.473,599.138 
		537.671,597.683 539.999,598.558 542.904,600.59 544.646,602.047 546.974,600.303 547.551,597.399 544.935,593.614 
		546.388,590.123 548.718,588.091 551.04,584.602 553.661,579.656 554.82,577.33 553.661,574.135 556.274,569.483 555.698,565.701 
		558.894,563.667 557.727,558.435 559.188,554.07 560.638,549.998 562.382,547.676 562.382,544.187 562.966,541.563 
		561.438,539.023 558.167,539.674 554.024,541.643 550.313,543.823 547.479,543.606 542.027,546.658 534.831,545.565 
		532.65,542.294 531.348,539.674 529.379,539.898 526.544,540.769 524.149,542.078 522.617,542.078 521.095,542.949 
		520.002,540.549 517.605,537.932 516.079,532.7 515.641,530.082 511.063,531.392 509.752,533.354 508.226,534.668 505.606,534.668 
		503.649,534.446 501.248,535.319 500.159,533.575 499.503,529.865 497.759,529.209 497.324,527.9 494.057,528.339 490.128,529.648 
		487.51,529.43 484.892,530.517 483.149,530.082 480.531,530.739 480.098,532.265 477.262,532.7 476.171,534.229 474.206,534.446 
		472.244,533.792 464.068,535.864 462.651,536.915 460.033,538.079 459.161,541.86 459.741,545.349 461.779,543.894 
		464.399,544.474 467.596,544.474 469.045,546.513 471.084,545.93 474.279,547.964 470.497,553.779 472.535,556.398 
		473.697,559.593 472.828,562.505 477.771,561.052 479.512,564.247 474.279,571.521 469.627,570.644 467.596,572.681 
		465.269,574.135 457.126,579.949 455.384,580.826 455.093,578.783 453.343,577.33 450.441,580.237 448.114,579.078 
		444.333,582.567 442.298,581.983 441.714,584.894 439.97,586.638 437.354,589.25 438.242,590.167 439.246,592.12 438.774,593.069 
		443.054,596.402 446.385,602.589 461.606,607.815 471.597,612.1 480.162,613.999 490.627,617.333 492.054,617.808 	"/>
</g>
<g id="divisionPolitica">
	<g opacity="0.8">
		<polygon fill-rule="evenodd" clip-rule="evenodd" fill="none" stroke="#FFFFFF" stroke-width="2" points="650.346,345.282 
			654.739,334.767 654.908,331.383 655.213,325.252 655.041,323.592 653.789,323.825 651.887,324.777 651.409,323.352 
			650.69,324.32 649.022,324.32 644.695,325.32 638.695,320.657 622.032,320.657 615.705,316.992 607.046,314.995 602.381,310.996 
			589.389,307.332 586.059,304.001 583.393,298.338 578.729,291.676 573.396,276.018 572.065,269.69 570.73,263.028 
			565.067,260.031 562.067,259.697 562.067,259.697 561.816,259.446 558.155,249.121 551.824,242.127 549.157,237.129 
			544.159,230.8 541.162,225.137 539.498,218.474 535.831,210.479 532.164,205.816 530.5,202.485 528.171,199.487 520.172,195.49 
			516.177,191.825 515.846,189.16 512.175,184.5 503.18,182.499 497.519,180.499 492.519,182.499 482.193,183.831 475.863,187.16 
			471.867,187.826 468.198,190.495 465.872,199.153 463.535,205.816 457.207,214.145 454.876,215.144 454.876,215.144 
			440.884,208.148 440.212,205.816 439.216,205.816 432.217,201.817 426.554,199.822 419.222,194.157 414.559,191.162 
			409.56,187.16 407.564,177.503 403.563,158.85 400.902,154.186 391.573,145.191 385.91,143.858 378.915,134.862 371.915,123.204 
			361.59,115.877 358.252,112.212 358.252,109.216 355.926,105.549 353.596,104.884 347.263,104.55 337.266,99.216 300.289,99.216 
			300.289,114.212 277.965,114.212 277.965,114.212 210.998,114.212 98.058,51.919 98.058,51.919 100.722,46.255 100.722,41.259 
			100.722,41.259 26.427,41.259 26.095,44.591 27.296,48.398 27.771,53.155 26.819,54.581 26.735,55.524 27.686,56.949 
			27.296,59.338 29.199,58.862 31.103,62.193 30.627,63.145 29.675,62.669 31.579,72.659 33.004,75.512 35.859,77.892 
			36.653,84.622 36.812,85.978 38.715,86.93 39.667,89.782 43.947,93.114 42.519,96.443 39.667,95.966 42.044,99.298 
			42.044,102.149 40.618,103.103 42.519,106.433 45.852,108.335 50.132,116.899 50.607,121.18 49.178,125.46 51.557,125.938 
			57.265,132.121 56.314,144.488 56.291,145.198 56.768,145.198 57.265,144.964 58.693,145.439 59.388,144.903 59.645,145.439 
			58.693,146.867 62.025,148.294 63.449,153.526 62.025,163.516 64.4,164.465 64.877,170.652 68.683,173.505 69.635,175.883 
			71.536,176.359 78.67,182.068 79.623,184.445 87.234,186.825 93.895,196.338 95.797,197.291 98.176,203.95 101.505,204.902 
			106.739,213.465 110.068,214.891 110.068,217.27 112.449,220.6 108.164,229.164 110.068,232.017 109.119,237.725 108.164,238.199 
			108.164,236.771 103.885,240.102 102.456,242.957 101.505,242.481 95.797,245.811 92.469,245.811 85.33,242.481 80.575,242.481 
			79.149,241.054 79.623,245.811 81.527,246.286 82.956,248.19 84.38,247.711 84.38,249.138 86.284,250.567 88.187,253.898 
			94.369,258.183 95.321,264.838 96.749,265.317 97.225,267.217 101.505,269.122 102.932,268.168 104.835,269.122 110.068,275.781 
			114.825,275.781 118.631,281.963 122.438,285.293 124.338,285.293 127.669,281.963 128.62,282.915 129.144,283.401 
			133.377,286.25 133.854,287.199 137.66,289.097 138.134,290.05 148.124,298.138 147.648,299.088 150.978,302.418 152.857,302.627 
			155.258,302.894 155.258,303.846 157.163,305.275 158.115,304.322 160.489,305.749 160.967,311.933 162.395,311.456 
			163.821,313.835 164.18,314.773 167.625,323.825 168.029,326.913 168.859,328.851 168.103,341.902 165.727,345.233 
			165.727,349.515 165.492,350.538 166.212,351.092 166.675,350.464 166.675,352.842 165.249,355.695 166.675,359.976 
			166.896,359.952 167.152,359.976 168.798,360.356 167.625,359.976 170.006,360.454 169.529,356.169 171.433,359.976 
			174.286,364.733 174.763,369.494 176.19,369.494 175.237,367.59 178.094,368.537 179.045,367.113 179.997,367.59 181.422,371.871 
			186.181,377.103 199.022,385.666 201.888,388.972 202.894,390.137 211.391,399.934 218.242,404.295 221.857,406.598 
			223.276,409.434 226.138,415.163 228.515,428.006 230.895,431.808 235.651,431.808 240.881,428.479 243.262,425.623 
			247.545,423.726 250.399,419.918 251.35,413.255 249.447,407.55 242.788,404.219 242.788,399.467 238.508,394.705 
			239.932,391.375 238.982,389.948 235.651,390.9 234.7,389.948 233.274,385.666 228.993,382.336 226.615,378.531 223.76,379.004 
			224.711,384.236 221.38,386.617 220.432,384.236 220.432,384.236 219.821,383.29 216.624,382.807 213.295,380.433 
			211.391,377.103 209.964,369.494 212.817,361.883 212.344,357.598 210.438,353.796 207.11,350.941 205.683,347.608 
			204.731,342.854 202.354,338.572 202.829,334.767 198.071,332.862 196.644,327.631 194.268,325.252 194.742,323.352 
			193.791,322.875 192.839,318.592 193.747,315.264 194.268,313.361 192.363,308.603 192.363,304.796 189.984,301.943 
			191.411,298.614 187.606,296.234 187.949,292.119 188.081,290.526 179.045,283.867 178.569,284.818 173.336,279.586 
			176.19,276.256 167.625,271.976 167.625,271.021 168.578,270.545 165.727,266.74 164.775,259.606 160.015,256.275 
			157.638,255.801 152.405,248.19 153.83,242.007 151.93,241.054 152.405,234.872 149.552,232.017 150.504,226.307 145.744,225.833 
			142.892,223.929 140.99,211.562 140.037,211.087 136.234,212.037 136.234,207.756 134.804,205.856 132.902,206.328 
			132.902,208.231 131.001,207.756 130.046,205.856 130.522,200.143 128.146,197.291 127.669,194.437 125.767,190.63 
			115.777,181.115 111.972,174.933 110.068,173.982 108.64,174.933 106.263,173.029 105.787,168.748 101.98,165.42 98.65,157.808 
			101.031,147.817 99.127,141.635 99.602,131.646 95.797,128.789 96.749,126.412 94.845,122.607 97.225,109.288 99.602,105.481 
			98.457,100.944 97.028,100.467 94.65,96.664 93.416,95.015 92.944,92.638 102.456,101.2 106.263,101.675 116.727,111.19 
			122.911,112.618 125.29,110.237 124.338,109.762 125.29,108.811 127.193,108.811 134.804,113.567 135.278,118.799 
			134.328,118.799 139.085,121.656 145.744,124.032 147.173,123.557 145.27,122.607 146.696,122.131 149.552,125.938 
			149.552,124.509 150.978,124.509 152.405,126.887 152.405,127.521 152.405,129.266 150.978,133.07 150.919,133.923 
			150.504,134.975 149.075,139.733 149.552,144.013 152.169,148.241 155.736,154.001 155.736,159.711 156.688,159.711 
			158.592,162.562 158.115,173.029 160.489,173.505 162.872,180.641 168.578,188.728 167.152,193.01 167.625,194.914 
			169.529,196.338 169.529,195.388 172.387,194.914 173.813,196.815 172.862,200.62 174.286,202.522 174.286,208.231 
			175.713,208.706 179.997,213.939 183.325,215.366 183.325,217.27 181.899,215.843 180.472,216.317 185.705,222.977 
			187.606,227.736 195.693,231.541 195.219,232.969 197.596,237.249 205.207,247.711 209.013,247.24 212.344,251.997 
			213.295,250.095 212.344,249.62 213.769,246.763 214.724,249.138 215.329,249.325 216.149,249.138 220.907,251.519 
			221.38,250.567 224.236,251.519 224.236,252.47 220.907,252.947 220.907,255.801 222.809,256.275 221.38,257.701 221.857,258.183 
			219.952,259.132 221.38,263.411 221.857,269.597 224.236,269.597 225.186,271.976 223.285,271.976 226.138,273.401 
			228.993,277.683 237.079,280.061 240.409,280.061 242.788,286.25 240.409,284.344 244.689,293.381 248.972,296.234 
			250.399,295.285 253.217,295.175 252.303,293.856 254.206,292.906 254.206,294.332 256.105,294.806 256.583,295.761 
			255.156,295.761 261.342,301.468 262.289,304.796 261.815,309.078 265.144,307.653 265.62,310.034 267.524,310.984 
			266.573,313.835 264.193,311.456 264.278,311.019 263.327,310.064 260.867,315.264 260.867,312.411 255.63,319.544 
			255.156,322.875 255.63,325.73 255.63,326.204 254.681,328.107 255.63,332.387 257.057,329.536 259.435,331.436 260.389,332.387 
			263.243,333.814 264.193,336.192 266.573,336.192 270.525,333.852 271.442,334.909 269.427,338.097 268.952,336.67 
			267.047,337.353 265.144,338.097 267.524,340.951 268.002,339.521 270.379,339.521 271.329,340.951 272.757,339.521 
			271.804,337.144 276.089,338.097 275.611,342.378 276.56,341.902 277.512,343.331 277.742,343.307 278.939,343.331 
			280.844,344.756 278.793,345.523 286.55,348.563 287.979,350.941 288.282,350.588 288.931,349.036 290.358,349.515 
			290.358,351.892 289.71,351.916 289.405,352.366 293.685,352.366 295.114,354.747 296.542,354.27 298.922,355.695 
			300.347,358.552 297.016,358.076 296.066,356.649 295.114,357.598 296.066,358.076 296.066,359.505 294.639,359.026 
			291.307,354.747 289.879,354.747 292.527,358.283 296.066,364.259 297.016,365.21 297.492,364.259 298.922,364.733 
			299.252,360.699 300.726,362.419 300.554,364.93 300.821,367.113 300.347,367.59 297.97,366.638 299.871,371.394 303.533,374.3 
			302.248,371.871 306.055,373.775 308.433,377.103 310.814,377.578 311.761,379.004 314.619,377.578 313.19,377.103 
			313.668,376.627 315.569,376.627 316.998,381.386 316.047,382.336 314.142,381.858 306.518,377.311 306.043,377.786 
			322.227,389.475 328.888,395.183 330.792,396.607 335.074,401.844 337.926,408.978 346.965,418.011 350.293,426.1 351.722,426.1 
			356.956,430.859 363.139,438.946 364.567,438.468 364.089,439.421 369.799,445.127 371.702,449.888 372.654,449.888 
			372.177,450.836 375.032,456.072 374.685,465.75 374.553,469.388 379.786,477.477 381.688,483.663 383.457,484.491 
			389.778,487.465 390.253,489.371 389.606,490.401 387.873,493.174 388.826,497.458 387.873,503.158 385.021,504.591 
			385.021,513.813 389.283,513.307 386.923,516.194 389.782,515.721 392.631,520.477 392.631,522.858 388.828,524.761 
			389.775,526.966 388.711,531.767 394.364,537.929 395.794,545.062 392.075,548.892 394.065,551.877 394.061,557.398 
			397.87,559.773 398.82,563.581 401.671,567.387 405.001,569.765 408.334,569.765 407.855,572.144 403.568,569.287 
			405.947,571.667 408.377,572.571 413.562,574.521 417.27,574.324 417.744,577.655 426.306,581.191 429.735,582.607 
			438.301,590.22 439.246,592.12 438.774,593.069 443.054,596.402 446.385,602.589 461.606,607.815 471.597,612.1 480.162,613.999 
			490.627,617.333 492.054,617.808 495.381,614.955 498.709,615.428 504.422,619.236 509.651,626.847 512.505,628.273 
			514.41,628.273 517.263,632.078 528.208,637.788 530.105,641.115 543.906,645.872 567.685,653.966 569.383,655.073 
			571.019,654.91 571.973,657.762 577.677,660.62 600.51,664.428 606.696,666.809 607.646,665.854 610.022,665.854 617.632,673.94 
			633.331,677.273 634.76,678.222 630.955,678.222 641.424,683.454 641.607,683.771 641.897,683.932 644.749,685.834 
			666.63,687.737 678.051,693.442 687.563,695.825 690.891,696.299 692.318,694.394 701.359,693.922 709.445,689.162 715.7,686.858 
			727.519,682.5 732.755,676.793 736.56,675.366 737.035,673.94 748.8,673.756 747.848,672.805 744.661,672.038 740.852,672.038 
			740.365,672.038 739.414,671.091 740.365,669.66 742.743,669.184 744.173,666.331 746.072,665.379 749.405,668.711 
			748.455,670.609 748.931,671.556 753.211,667.278 756.067,668.711 755.115,671.091 751.304,673.467 758.446,673.467 
			762.528,674.523 775.849,678.329 776.042,677.747 774.615,676.32 770.337,675.366 769.383,673.94 764.629,673.467 
			763.384,672.745 762.25,672.598 761.3,671.556 762.25,669.184 769.383,672.515 771.762,671.091 774.143,674.416 780.324,675.844 
			782.227,678.222 779.377,679.171 793.641,687.258 806.486,696.299 814.574,703.909 818.855,706.288 819.33,705.336 
			821.711,706.763 821.711,707.237 820.406,707.835 821.711,709.611 835.829,722.727 835.829,723.896 839.298,727.701 
			841.506,727.989 842.133,727.404 843.078,724.778 845.912,720.682 846.231,716.882 844.967,714.543 844.023,711.327 
			846.548,706.944 846.548,704.315 841.184,701.972 841.184,699.05 857.89,670.109 900.124,670.109 899.807,668.356 
			900.438,665.142 899.497,663.093 899.497,656.076 898.867,654.907 893.505,653.444 891.613,651.984 887.201,644.672 
			884.682,642.92 879.008,641.752 868.608,634.737 865.141,634.517 865.141,632.104 867.032,631.225 877.112,630.937 
			877.112,610.764 935.736,603.455 935.736,602.282 935.419,598.481 940.147,597.902 945.191,599.356 951.807,590.301 
			951.807,585.621 955.278,579.773 958.107,578.316 961.894,578.316 964.731,575.682 966.621,566.911 969.458,563.404 
			971.348,564.278 971.666,576.848 974.502,578.898 976.708,583.866 978.597,585.915 980.489,586.207 981.121,585.621 
			981.749,579.773 982.697,574.513 983.32,569.543 986.791,555.218 988.049,550.245 984.583,550.245 982.378,551.417 
			981.749,547.615 985.852,543.819 987.105,540.6 987.105,537.678 984.902,537.678 982.697,539.725 980.802,538.85 980.171,537.678 
			981.749,532.416 986.476,527.735 986.476,522.771 984.902,518.089 985.214,509.324 992.775,499.379 997.824,490.027 
			997.824,486.812 999.713,476.87 999.081,469.56 997.824,468.1 995.934,466.638 992.957,466.064 984.398,465.106 979.164,464.156 
			977.257,463.678 967.272,462.253 962.04,462.73 959.185,464.632 952.047,465.106 947.292,467.014 943.967,470.341 939.208,471.77 
			927.336,474.641 922.224,475.888 907.81,479.379 905.082,480.811 897.82,484.61 891.565,489.694 890.212,490.799 890.212,492.221 
			890.487,494.759 887.635,500.942 887.031,506.905 886.88,508.397 887.831,512.673 887.831,524.095 889.736,527.896 
			887.356,531.706 882.597,536.462 881.168,552.638 873.562,560.25 867.849,565.006 859.289,569.287 856.914,572.618 
			859.766,572.141 860.242,572.141 865.468,574.521 864.522,578.799 863.84,579.716 858.341,583.08 858.341,584.03 858.341,584.03 
			858.812,585.94 854.682,588.96 854.206,588.477 851.828,588.002 852.3,587.533 851.352,586.102 851.828,585.629 852.779,584.676 
			847.544,580.871 824.234,586.102 823.824,587.299 823.287,587.055 815.234,599.761 807.624,600.709 806.669,600.709 
			797.635,601.188 791.453,602.615 783.841,606.42 782.888,606.893 772.898,611.178 755.147,609.583 758.151,611.652 
			757.198,608.796 752.923,605.468 743.73,597.22 739.452,596.457 735.644,595.789 729.459,591.027 716.14,591.027 714.227,589.988 
			710.903,588.174 709.954,588.174 704.725,585.794 702.346,579.136 699.492,579.136 698.794,577.465 698.503,566.432 
			696.601,566.432 691.843,562.623 691.376,557.875 689.464,555.968 689.062,554.531 686.137,544.076 678.051,533.606 
			667.146,522.123 660.45,515.057 659.026,509.819 657.393,506.731 649.51,491.75 648.791,488.455 646.181,486.991 642.847,480.809 
			649.375,482.754 651.091,485.368 652.24,487.719 654.143,493.432 655.913,483.272 647.348,475.743 644.503,470.732 
			644.12,469.388 639.348,462.035 638.566,458.924 635.713,449.888 635.798,448.057 635.238,447.982 634.284,447.03 
			635.713,443.227 634.76,442.273 637.142,440.848 639.043,435.616 637.614,421.821 638.175,410.522 637.614,409.449 
			637.142,404.693 638.094,403.744 637.831,399.137 637.614,395.183 636.191,394.705 636.666,393.275 637.142,393.753 
			638.566,380.91 635.238,381.858 634.284,380.91 634.76,378.531 633.81,378.531 634.284,376.627 636.191,376.627 638.094,379.479 
			639.521,371.871 638.094,372.347 638.26,370.63 638.566,367.59 637.142,366.161 639.521,365.687 640.945,363.782 637.614,361.403 
			637.441,359.345 638.566,354.747 638.094,351.892 637.614,351.417 638.566,347.608 640.465,347.608 639.996,349.515 
			642.376,349.515 642.847,350.464 644.274,345.704 642.847,345.233 643.321,344.28 647.604,345.704 646.652,346.661 
			647.126,349.99 643.321,358.076 643.793,360.932 		"/>
		<polyline fill="none" stroke="#FFFFFF" stroke-width="2" points="889.748,497.264 890.185,497.917 891.17,507.51 893.458,507.4 
			895.638,507.4 896.179,507.84 896.293,508.82 896.293,509.583 897.602,510.017 899.894,510.673 901.306,510.891 902.288,510.235 
			903.166,508.928 936.31,549.815 940.145,597.9 		"/>
		<polyline fill="none" stroke="#FFFFFF" stroke-width="2" points="936.31,549.815 979.778,495.917 985.011,481.96 983.996,474.112 
			983.698,466.553 983.413,465.387 983.698,464.95 		"/>
		<polyline fill="none" stroke="#FFFFFF" stroke-width="2" points="877.112,610.764 876.701,600.737 868.559,601.464 
			867.11,599.435 864.98,599.015 862.532,598.434 860.709,598.558 858.815,596.812 855.767,597.249 855.185,599.724 855.622,601.32 
			854.747,603.21 853.165,608.051 850.691,606.745 850.401,605.583 849.098,605.003 847.638,603.256 844.949,602.898 
			844.222,601.004 843.06,600.566 841.897,589.521 836.887,589.739 834.99,590.757 833.682,589.444 833.246,586.682 831.213,584.21 
					"/>
		<polyline fill="none" stroke="#FFFFFF" stroke-width="2" points="865.141,632.104 864.125,626.473 864.997,624.727 
			863.258,623.64 861.074,622.979 860.853,621.019 856.274,619.712 856.055,617.528 854.529,613.821 850.606,612.733 
			850.389,608.153 855.927,610.164 851.565,611.036 848.513,608.856 846.548,611.473 839.702,609.68 837.736,610.337 
			830.758,613.169 829.666,615.351 819.638,624.727 817.672,626.905 815.492,626.688 814.624,625.815 811.789,621.67 
			806.555,621.67 807.207,618.399 806.988,614.261 808.08,612.733 807.866,610.114 803.719,609.244 801.891,614.498 799.274,612.97 
			796.877,612.752 795.784,614.065 793.823,614.498 795.651,610.337 794.776,611.644 794.559,613.169 793.905,615.569 
			794.996,619.274 792.381,621.46 791.941,624.51 788.231,630.396 784.097,626.473 785.617,623.201 785.838,621.46 782.564,617.528 
			778.422,616.002 776.021,615.351 774.499,612.077 772.969,612.299 770.789,611.207 772.898,611.178 770.054,613.841 
			768.093,610.787 775.594,611.925 774.502,609.964 		"/>
		<polyline fill="none" stroke="#FFFFFF" stroke-width="2" points="788.231,630.396 785.838,632.144 779.297,636.938 
			779.73,641.954 778.205,642.829 778.639,646.754 775.366,648.938 773.406,649.591 774.279,653.295 771.226,659.836 
			774.711,665.724 773.624,668.781 774.499,671.178 773.406,673.792 		"/>
		<polyline fill="none" stroke="#FFFFFF" stroke-width="2" points="779.297,636.938 743.095,638.25 743.312,636.723 
			744.183,635.633 743.312,633.015 739.171,633.743 732.627,628.505 729.572,625.016 729.572,622.618 732.19,621.745 
			732.406,620.219 728.917,619.127 726.957,621.09 724.56,621.745 720.704,627.417 718.524,627.636 717.215,626.979 
			715.033,629.161 711.332,625.453 708.274,620.219 710.016,617.604 711.545,612.585 708.412,613.477 706.664,612.822 
			701.872,613.692 699.908,612.822 699.113,606.698 697.588,604.957 694.027,601.612 693.807,599.435 690.76,597.683 
			690.76,595.722 689.227,594.199 687.921,591.143 683.776,588.743 681.162,587.001 679.418,586.565 678.762,587.654 
			681.162,592.018 677.816,599.138 675.271,602.922 673.963,604.664 670.476,604.884 668.293,606.847 666.329,607.065 
			665.24,606.194 660.665,606.629 654.556,611.207 653.463,614.913 651.722,614.696 650.412,609.46 647.14,607.282 648.231,602.047 
			646.485,600.737 644.093,603.138 642.125,603.352 639.945,609.898 642.995,612.514 642.995,614.913 641.255,616.002 
			638.639,616.002 636.675,614.261 627.08,614.481 626.424,617.528 624.461,616.002 622.281,618.549 622.06,620.149 622.06,623.416 
			621.848,628.218 621.628,632.578 623.806,635.633 625.329,639.553 625.771,642.392 628.17,643.697 629.476,647.846 
			632.528,649.807 634.274,657.004 635.146,658.31 634.493,661.585 631.003,663.547 630.568,665.509 624.029,667.469 
			622.281,671.828 618.209,674.449 		"/>
		<polyline fill="none" stroke="#FFFFFF" stroke-width="2" points="551.04,584.602 552.206,590.123 552.498,595.358 
			555.112,598.558 558.605,600.303 561.219,597.104 563.251,596.525 565.291,592.163 569.652,591.292 574.014,590.995 
			576.344,587.803 578.375,586.928 580.697,588.673 583.319,589.25 583.898,590.995 585.644,592.163 586.518,594.199 
			588.26,595.069 588.26,597.104 590.586,598.85 592.627,598.271 592.912,594.78 595.24,595.358 596.695,598.85 598.73,601.464 
			599.311,604.377 601.637,605.538 604.543,607.866 605.414,609.608 609.195,610.188 608.907,612.514 609.778,614.552 
			612.976,616.294 616.753,614.552 620.822,616.002 622.281,617.749 		"/>
		<polyline fill="none" stroke="#FFFFFF" stroke-width="2" points="598.73,601.464 602.8,599.724 606.869,595.94 609.485,597.104 
			610.649,598.85 611.817,597.683 610.942,590.995 612.685,589.25 609.485,586.638 610.649,582.856 612.685,581.404 
			612.685,578.499 613.845,576.461 612.685,571.224 612.102,566.573 612.399,562.798 615.3,561.631 617.049,563.953 
			617.628,565.994 620.25,567.445 622.281,571.521 624.896,572.681 626.932,572.97 628.974,574.135 633.327,570.356 
			636.238,571.521 639.724,570.062 639.435,568.024 642.056,567.158 645.251,567.737 646.707,566.279 647.285,564.538 
			644.376,563.953 642.056,560.176 639.144,561.339 637.401,559.593 637.691,557.848 633.912,555.529 631.586,552.91 
			629.844,554.654 627.224,554.07 626.059,552.325 624.896,549.419 625.186,546.803 628.386,541.563 628.386,538.658 
			629.26,536.627 627.224,534.01 624.31,534.877 623.733,533.718 624.896,530.517 627.511,531.102 629.844,528.479 631.874,525.576 
			634.493,524.122 634.709,522.017 636.675,518.525 635.727,516.344 636.893,515.47 638.057,511.398 640.376,511.327 
			642.346,512.711 642.346,515.036 642.635,518.525 644.959,520.852 648.157,521.141 649.611,523.179 647.285,523.756 
			645.543,525.504 642.346,525.504 642.346,528.699 643.213,531.607 642.346,534.514 644.376,536.263 646.707,535.685 
			648.453,538.003 651.65,535.685 652.522,532.193 655.716,532.481 656.303,534.229 663.278,536.627 663.86,537.502 
			660.079,539.533 656.887,547.379 655.425,554.359 654.265,554.945 653.393,556.977 656.011,563.667 663.278,566.279 
			666.475,565.994 669.383,568.024 667.054,569.773 664.149,570.062 658.919,572.099 659.208,576.166 659.501,581.113 
			657.171,583.727 655.716,586.928 657.171,589.25 664.149,589.835 664.732,593.326 666.475,595.652 669.969,594.488 
			672.004,592.745 675.783,594.488 677.816,599.138 		"/>
		<polyline fill="none" stroke="#FFFFFF" stroke-width="2" points="634.709,522.017 631.874,519.762 629.844,518.893 
			627.224,523.253 624.896,523.831 622.281,527.028 619.086,528.479 617.049,530.517 615.595,529.648 613.271,524.703 
			615.3,523.538 616.178,520.343 618.209,519.18 620.316,515.69 618.287,516.563 616.827,516.856 617.118,515.399 618.287,514.529 
			618.863,511.915 621.481,510.745 625.266,513.656 625.843,512.783 625.266,509.874 627.005,506.678 627.883,503.478 
			626.136,500.862 624.391,500.28 622.644,498.531 620.609,499.696 619.446,500.569 617.118,497.661 615.3,496.061 616.827,494.171 
			616.614,492.353 615.668,489.229 613.631,487.193 611.309,481.96 613.923,480.218 615.956,478.766 616.537,476.725 
			614.217,474.402 614.217,470.62 616.827,470.62 617.991,468.295 617.7,465.098 621.848,463.35 621.117,462.188 618.792,461.028 
			614.217,457.247 612.399,454.917 		"/>
		<polyline fill="none" stroke="#FFFFFF" stroke-width="2" points="583.319,589.25 585.352,587.219 585.061,585.184 
			586.518,581.693 589.426,580.529 589.426,578.499 591.461,575.593 595.24,575.882 597.566,576.748 601.349,575.882 
			605.129,578.205 604.543,580.826 606.869,580.529 609.778,579.949 610.942,578.783 612.685,578.499 		"/>
		<polyline fill="none" stroke="#FFFFFF" stroke-width="2" points="601.349,575.882 602.22,573.263 601.05,571.807 601.928,570.644 
			601.05,568.315 601.637,565.41 596.116,560.176 596.401,557.848 594.949,557.56 593.783,559.886 592.912,560.472 592.331,563.081 
			588.551,565.122 587.679,567.737 589.72,570.933 590.586,573.263 591.461,575.593 		"/>
		<polyline fill="none" stroke="#FFFFFF" stroke-width="2" points="639.435,460.15 636.816,461.895 634.783,461.606 634.493,458.12 
			631.003,456.591 628.386,455.065 626.424,453.319 623.806,452.739 622.355,455.065 620.316,455.72 616.178,454.046 
			613.845,455.213 609.195,454.627 606.582,456.373 602.8,456.955 601.928,458.12 596.98,455.213 591.461,455.501 585.644,446.198 
			582.448,446.782 580.122,444.16 578.953,445.034 579.826,448.523 575.763,447.362 569.652,444.449 564.708,443.578 
			562.675,442.131 562.675,439.799 567.33,435.44 567.039,433.982 564.708,431.951 563.55,428.751 561.219,430.494 560.638,428.46 
			560.638,426.428 561.512,424.971 559.765,421.771 561.804,420.607 565.87,421.189 566.738,420.023 564.708,414.794 
			568.195,406.07 577.795,407.234 579.246,404.328 581.283,402.293 580.991,398.516 575.47,393.857 574.887,390.371 
			576.924,386.008 575.47,380.485 572.559,381.358 571.975,378.451 576.344,374.962 578.375,375.539 580.697,371.467 
			582.448,371.178 585.934,368.856 589.72,370.016 590.586,369.434 589.426,366.817 590.586,365.071 590.296,363.325 
			589.134,361.584 590.877,359.836 594.949,357.514 597.856,359.549 600.188,357.804 612.102,347.92 614.72,344.137 
			609.778,343.847 609.778,317.66 		"/>
		<polyline fill="none" stroke="#FFFFFF" stroke-width="2" points="612.399,562.798 612.399,560.472 610.069,558.435 
			610.358,556.977 612.685,556.977 614.143,555.529 618.5,556.106 620.822,555.815 623.444,552.616 626.059,552.325 		"/>
		<polyline fill="none" stroke="#FFFFFF" stroke-width="2" points="614.143,555.529 614.143,550.29 612.399,548.839 
			609.778,547.379 606.869,547.379 605.414,548.55 603.382,547.964 601.928,549.998 599.891,547.676 601.05,545.93 601.05,544.187 
			603.382,541.86 602.22,540.403 599.602,541.86 596.695,540.986 593.496,542.732 591.171,543.606 591.461,546.222 591.171,548.252 
			588.843,548.252 587.97,550.29 586.229,550.29 586.518,547.379 585.061,547.091 583.319,542.732 584.771,540.986 583.03,537.206 
			579.826,537.502 575.47,536.041 572.559,533.718 570.528,531.687 568.781,533.422 569.358,536.334 567.039,536.915 
			562.966,541.563 562.382,544.187 562.382,547.676 560.638,549.998 559.188,554.07 557.727,558.435 558.894,563.667 
			555.698,565.701 556.274,569.483 553.661,574.135 554.82,577.33 553.661,579.656 551.04,584.602 548.718,588.091 546.388,590.123 
			544.935,593.614 547.551,597.399 546.974,600.303 544.646,602.047 542.904,600.59 539.999,598.558 537.671,597.683 
			534.473,599.138 532.435,596.525 529.236,596.812 526.038,596.525 522.841,594.488 517.605,596.231 514.698,596.231 
			512.366,594.488 510.915,592.745 507.425,593.326 504.227,593.035 501.612,595.358 501.903,597.399 501.903,601.174 
			503.066,605.247 498.998,606.991 494.637,607.866 492.02,610.481 491.726,613.97 492.308,617.459 		"/>
		<polyline fill="none" stroke="#FFFFFF" stroke-width="2" points="437.354,589.25 439.97,586.638 441.714,584.894 442.298,581.983 
			444.333,582.567 448.114,579.078 447.242,577.33 445.496,575.297 446.367,570.644 445.784,566.868 443.749,564.83 
			442.007,562.798 439.388,562.216 435.608,563.953 428.05,562.216 427.175,563.375 423.98,566.573 420.196,566.868 
			417.002,567.737 414.092,568.024 412.344,569.483 410.6,568.61 408.565,572.681 		"/>
		<polyline fill="none" stroke="#FFFFFF" stroke-width="2" points="448.114,579.078 450.441,580.237 453.343,577.33 
			455.093,578.783 455.384,580.826 457.126,579.949 465.269,574.135 467.596,572.681 469.627,570.644 474.279,571.521 
			479.512,564.247 477.771,561.052 472.828,562.505 473.697,559.593 472.535,556.398 470.497,553.779 474.279,547.964 
			471.084,545.93 469.045,546.513 467.596,544.474 464.399,544.474 461.779,543.894 459.741,545.349 459.161,541.86 
			460.033,538.079 462.651,536.915 464.068,535.864 472.244,533.792 474.206,534.446 476.171,534.229 477.262,532.7 
			480.098,532.265 480.531,530.739 483.149,530.082 484.892,530.517 487.51,529.43 490.128,529.648 494.057,528.339 497.324,527.9 
			497.759,529.209 499.503,529.865 500.159,533.575 501.248,535.319 503.649,534.446 505.606,534.668 508.226,534.668 
			509.752,533.354 511.063,531.392 515.641,530.082 516.079,532.7 517.605,537.932 520.002,540.549 521.095,542.949 
			522.617,542.078 524.149,542.078 526.544,540.769 529.379,539.898 531.348,539.674 532.65,542.294 534.831,545.565 
			542.027,546.658 547.479,543.606 550.313,543.823 554.024,541.643 558.167,539.674 561.438,539.023 		"/>
		<polyline fill="none" stroke="#FFFFFF" stroke-width="2" points="603.522,498.244 600.253,499.551 596.548,499.551 
			593.935,500.646 591.532,501.514 588.696,500.646 587.824,501.949 586.304,502.17 587.389,504.347 586.304,506.094 
			586.304,507.84 583.03,512.854 581.502,515.909 582.81,518.31 579.325,520.053 574.523,521.58 571.903,522.235 571.247,526.593 
			570.528,531.687 		"/>
		<polyline fill="none" stroke="#FFFFFF" stroke-width="2" points="562.966,541.563 561.438,539.023 560.349,536.627 
			557.727,534.229 554.675,533.138 553.59,531.392 552.935,528.777 550.313,527.9 549.881,525.504 548.354,523.104 549.226,521.141 
			547.479,519.614 546.612,517.213 546.824,513.074 550.098,508.712 552.06,510.017 554.461,510.017 556.859,507.84 
			560.569,510.235 563.182,508.06 562.966,506.094 563.401,503.696 565.364,502.608 566.021,499.334 569.073,499.551 
			570.375,501.298 573.434,500.426 574.307,499.334 576.924,498.022 576.702,496.061 573.867,496.061 573.867,493.231 
			572.776,491.269 574.084,489.085 574.307,486.468 576.266,486.032 578.226,488.431 579.758,490.396 581.722,490.396 
			584.336,489.74 586.304,489.523 586.954,486.032 588.48,486.032 590.007,485.378 590.007,483.635 591.751,482.322 
			593.496,489.085 594.586,493.231 597.634,496.718 600.911,496.061 601.349,497.589 603.522,498.244 604.397,499.988 
			605.923,499.988 606.36,498.681 610.069,497.807 612.247,499.119 612.905,498.244 611.817,495.844 612.905,493.231 
			615.081,492.353 616.614,492.353 		"/>
		<polyline fill="none" stroke="#FFFFFF" stroke-width="2" points="494.057,528.339 493.617,525.504 497.759,522.454 
			499.723,521.58 498.635,519.614 494.706,518.089 494.057,513.947 497.107,510.673 498.635,507.188 503.43,501.298 
			507.356,495.408 509.968,494.974 512.366,493.884 512.152,491.705 510.409,488.867 509.968,486.686 511.715,484.506 
			513.679,482.978 514.769,480.796 513.679,478.618 516.296,476.22 521.315,476.22 522.841,478.183 525.893,479.492 
			528.942,479.053 531.997,478.839 536.14,483.85 538.977,484.943 540.721,486.686 542.684,486.468 544.646,488.213 547.045,487.56 
			548.571,486.032 549.446,482.322 553.152,481.454 559.039,482.107 560.13,484.286 563.401,485.816 564.054,486.686 
			568.195,488.648 571.247,489.306 572.776,491.269 		"/>
		<polyline fill="none" stroke="#FFFFFF" stroke-width="2" points="516.296,476.22 515.207,474.691 517.171,471.858 
			518.479,470.765 519.349,464.663 519.568,461.826 518.479,458.12 518.042,455.501 520.22,453.974 520.877,452.879 
			519.349,450.271 517.171,448.744 514.333,448.523 511.496,451.578 508.226,453.103 506.703,454.41 503.649,454.41 
			501.034,449.682 496.085,444.449 490.851,441.258 488.818,435.44 489.69,430.494 487.364,425.842 488.818,424.095 
			489.981,420.899 491.145,420.899 493.468,421.771 497.253,420.899 498.998,421.481 503.649,413.921 506.554,412.472 
			508.592,408.982 515.859,405.783 520.802,401.127 526.038,392.697 529.817,386.008 534.768,383.099 536.795,379.613 
			537.671,375.831 537.671,372.343 536.214,367.981 538.541,365.071 534.473,362.748 535.632,356.931 540.87,353.734 
			544.935,353.441 550.755,356.058 552.498,355.188 555.112,354.604 555.985,351.987 553.077,349.952 547.263,349.664 
			546.974,347.92 542.317,345.304 543.773,343.847 542.605,342.393 539.412,340.94 535.632,335.706 534.768,333.091 
			536.214,330.475 536.214,327.857 533.013,326.69 533.013,323.784 532.435,320.587 528.361,319.71 526.914,317.095 
			523.126,311.574 528.652,306.629 536.795,299.65 539.701,303.14 542.605,300.524 541.741,299.362 543.773,294.417 
			544.355,291.509 544.935,288.022 542.027,287.731 539.999,285.984 537.671,288.022 535.339,287.731 535.92,282.787 
			540.575,277.551 546.974,274.065 550.464,264.177 555.985,261.268 562.868,261.917 		"/>
		<polyline fill="none" stroke="#FFFFFF" stroke-width="2" points="390.836,518.068 394.898,513.129 396.356,510.803 
			394.028,507.552 397.812,507.84 400.715,505.227 403.333,504.059 405.66,505.508 407.697,507.257 410.6,507.552 414.092,511.915 
			416.418,512.783 419.91,516.273 420.486,509.002 423.685,506.971 424.556,504.642 424.556,502.316 423.108,500.28 
			423.108,498.531 429.212,497.661 431.539,495.336 431.977,493.079 424.123,487.267 427.036,476.725 424.123,474.112 
			420.779,470.765 418.019,467.713 420.128,461.936 419.471,460.085 418.602,456.159 414.671,456.159 411.188,453.319 
			410.6,450.557 409.223,446.816 406.022,445.361 402.752,447.65 399.696,449.432 395.052,447.105 396.645,444.744 401.298,442.131 
			400.138,439.216 399.555,436.314 391.409,432.237 384.144,431.951 381.524,434.853 382.981,436.895 380.658,437.763 
			379.198,441.545 381.524,443.872 382.688,446.782 382.981,448.814 380.658,451.14 378.328,449.977 375.71,449.682 
			374.875,448.523 374.33,448.851 374.77,450.482 374.33,451.14 372.695,449.725 		"/>
		<polyline fill="none" stroke="#FFFFFF" stroke-width="2" points="152.004,241.244 123.653,239.719 105.99,238.407 		"/>
		<polyline fill="none" stroke="#FFFFFF" stroke-width="2" points="515.207,474.691 512.078,475.564 507.425,472.075 
			501.903,469.172 498.704,470.331 500.447,473.529 495.797,475.273 493.759,479.053 488.528,483.129 482.423,482.254 
			476.608,480.506 472.828,479.637 470.213,481.381 469.045,483.129 471.372,484.873 475.445,486.324 475.735,490.104 
			473.991,490.682 475.445,492.138 474.866,493.594 471.956,493.594 471.372,495.917 469.045,496.504 467.3,498.827 
			460.904,497.084 460.033,499.406 461.197,503.478 458.869,505.227 457.126,504.347 454.218,503.478 451.311,504.347 
			448.985,502.316 446.946,502.608 444.621,501.734 442.298,501.151 440.839,498.827 436.77,499.119 438.809,493.884 
			439.098,488.361 440.556,487.484 442.877,488.648 445.496,486.609 445.203,480.218 449.273,474.691 451.595,473.235 
			454.218,471.203 457.126,472.946 459.161,471.493 459.161,470.043 460.904,468.004 458.869,465.68 462.071,463.35 
			462.651,461.028 460.033,459.28 456.834,460.15 456.256,458.991 457.704,458.408 458.869,456.373 452.766,451.428 
			450.441,454.046 450.148,456.084 451.595,457.828 451.595,461.895 449.565,463.065 448.692,466.553 445.496,465.098 
			442.877,466.553 441.425,464.512 441.714,462.479 441.425,459.57 443.171,453.758 443.749,451.428 439.684,448.235 
			438.226,451.428 438.226,455.791 435.317,461.606 434.444,456.373 435.608,453.467 435.317,449.106 437.934,447.362 
			438.513,444.16 430.373,442.999 429.503,446.782 429.795,450.557 432.409,452.302 432.703,456.955 430.956,459.862 
			427.175,459.57 420.128,461.936 421.071,456.955 423.98,443.872 423.685,432.237 426.302,429.042 427.469,420.607 
			426.302,418.863 427.175,417.122 430.956,415.086 433.573,413.629 433.573,411.016 437.063,411.885 438.513,410.723 
			435.608,407.81 435.895,404.621 434.444,402.873 435.317,400.839 437.063,400.839 438.226,399.092 438.226,396.477 
			443.171,392.985 446.367,390.955 445.784,387.752 448.692,386.879 450.148,383.388 456.54,381.94 458.579,383.388 
			470.213,385.137 473.407,384.262 481.548,384.262 483.295,380.773 482.132,368.27 477.479,359.259 		"/>
		<polyline fill="none" stroke="#FFFFFF" stroke-width="2" points="470.213,481.381 467.887,477.893 467.887,473.529 
			469.918,471.787 471.372,468.004 473.697,466.553 475.445,461.895 476.317,460.15 479.512,459.57 482.712,457.538 485.62,456.373 
			486.784,454.046 489.981,457.828 492.597,457.828 493.184,460.447 495.506,461.028 497.253,462.479 497.253,466.553 
			501.903,469.172 		"/>
		<polyline fill="none" stroke="#FFFFFF" stroke-width="2" points="443.458,300.668 433.865,258.361 455.669,217.365 		"/>
		<polyline fill="none" stroke="#FFFFFF" stroke-width="2" points="384.144,431.951 383.707,428.46 379.783,428.894 376.73,426.715 
			376.73,424.095 374.109,421.047 373.238,414.065 369.314,411.449 368.006,405.783 366.699,404.035 367.131,400.111 
			368.446,397.06 366.259,393.57 363.208,386.59 356.229,382.662 353.615,385.719 348.815,387.029 344.89,382.662 346.198,379.176 
			342.271,372.197 339.219,366.963 334.421,365.221 330.935,358.24 328.752,349.081 330.496,342.103 330.496,335.561 
			342.708,336.87 348.378,332.946 348.378,322.477 350.997,322.477 354.052,317.68 350.125,311.574 350.997,308.955 
			359.718,308.082 359.718,303.285 361.464,301.105 362.339,296.307 364.953,296.307 366.699,293.691 374.988,299.795 
			380.22,300.231 384.144,305.902 391.555,308.082 396.354,305.03 397.663,307.211 399.407,307.648 403.333,305.467 
			408.565,306.337 410.749,309.83 414.239,311.135 416.852,310.698 424.706,298.487 432.555,297.615 443.458,300.668 
			454.797,313.316 455.669,316.806 452.766,322.622 453.343,328.436 454.218,330.475 453.927,335.999 450.441,340.068 
			449.565,343.56 451.892,347.338 448.985,348.79 448.405,351.699 451.311,355.478 452.766,358.096 454.797,358.385 
			455.962,360.132 456.54,363.622 460.904,368.561 467.3,369.725 468.17,371.467 470.497,372.634 477.479,359.259 488.818,356.642 
			502.776,361.876 505.102,367.111 507.138,368.561 509.463,367.399 510.915,368.856 510.043,371.178 514.698,372.343 
			517.605,370.016 522.254,370.308 524.294,372.053 525.455,375.249 530.982,379.323 533.013,378.157 534.768,377.869 
			536.795,379.613 539.999,382.815 543.191,387.172 543.773,400.256 548.134,408.109 547.551,414.217 548.718,416.833 
			548.134,421.481 548.426,425.552 550.755,428.751 553.373,428.751 553.661,425.842 560.638,426.428 		"/>
		<polyline fill="none" stroke="#FFFFFF" stroke-width="2" points="330.496,335.561 330.496,330.325 328.315,326.837 
			325.263,325.965 323.956,322.04 321.339,318.55 310.434,317.68 309.127,308.522 307.818,300.231 303.892,295.871 304.328,290.2 
			298.657,286.711 296.915,284.096 292.552,283.222 289.935,285.839 286.88,293.252 280.342,299.362 265.292,307.754 		"/>
		<polyline fill="none" stroke="#FFFFFF" stroke-width="2" points="289.935,285.839 289.062,284.096 286.445,284.532 
			283.83,276.682 286.008,273.626 284.701,269.267 285.135,265.34 281.647,263.159 281.214,259.671 276.851,254.874 273.36,247.459 
			270.746,240.915 273.36,237.863 278.595,237.427 285.573,240.044 288.19,237.427 286.445,227.395 288.625,220.416 
			285.573,198.174 289.062,197.302 290.372,193.377 291.68,177.239 290.807,168.081 289.498,157.612 287.753,154.557 
			285.135,134.059 282.956,132.749 284.265,128.827 285.956,114.213 		"/>
		<polyline fill="none" stroke="#FFFFFF" stroke-width="2" points="92.942,92.771 92.141,90.99 93.776,90.227 94.867,88.155 
			95.085,85.975 94.323,84.337 93.342,82.593 97.155,74.454 101.518,73.583 111.551,59.362 		"/>
	</g>
</g>
</svg>
